<svg width="55" height="74" viewBox="0 0 55 74" fill="none" xmlns="http://www.w3.org/2000/svg">
<rect width="55" height="55" rx="5" fill="white"/>
<path d="M21.5791 61.7578V68.042C21.5749 68.9137 21.2998 69.6268 20.7539 70.1812C20.2122 70.7355 19.4759 71.0465 18.5449 71.1143L18.2212 71.127C17.2098 71.127 16.4036 70.854 15.8027 70.3081C15.2018 69.7622 14.8971 69.0111 14.8887 68.0547V61.7578H16.0947V68.0166C16.0947 68.6852 16.2788 69.2057 16.647 69.5781C17.0151 69.9463 17.5399 70.1304 18.2212 70.1304C18.911 70.1304 19.4378 69.9463 19.8018 69.5781C20.1699 69.21 20.354 68.6916 20.354 68.0229V61.7578H21.5791ZM24.5308 64.1318V71.7935C24.5308 73.1138 23.932 73.7739 22.7344 73.7739C22.4762 73.7739 22.2371 73.7358 22.0171 73.6597V72.7202C22.1525 72.7541 22.3302 72.771 22.5503 72.771C22.8127 72.771 23.0116 72.6991 23.147 72.5552C23.2866 72.4155 23.3564 72.1701 23.3564 71.8188V64.1318H24.5308ZM23.2358 62.3101C23.2358 62.1239 23.293 61.9652 23.4072 61.834C23.5257 61.6986 23.6971 61.6309 23.9214 61.6309C24.1499 61.6309 24.3234 61.6965 24.4419 61.8276C24.5604 61.9588 24.6196 62.1196 24.6196 62.3101C24.6196 62.5005 24.5604 62.6592 24.4419 62.7861C24.3234 62.9131 24.1499 62.9766 23.9214 62.9766C23.6929 62.9766 23.5215 62.9131 23.4072 62.7861C23.293 62.6592 23.2358 62.5005 23.2358 62.3101ZM27.7046 71H26.5303V64.1318H27.7046V71ZM26.4351 62.3101C26.4351 62.1196 26.4922 61.9588 26.6064 61.8276C26.7249 61.6965 26.8984 61.6309 27.127 61.6309C27.3555 61.6309 27.529 61.6965 27.6475 61.8276C27.766 61.9588 27.8252 62.1196 27.8252 62.3101C27.8252 62.5005 27.766 62.6592 27.6475 62.7861C27.529 62.9131 27.3555 62.9766 27.127 62.9766C26.8984 62.9766 26.7249 62.9131 26.6064 62.7861C26.4922 62.6592 26.4351 62.5005 26.4351 62.3101ZM33.8301 71C33.7624 70.8646 33.7074 70.6234 33.665 70.2764C33.1191 70.8434 32.4674 71.127 31.71 71.127C31.0329 71.127 30.4764 70.9365 30.0405 70.5557C29.6089 70.1706 29.3931 69.6839 29.3931 69.0957C29.3931 68.3805 29.6639 67.8262 30.2056 67.4326C30.7515 67.0348 31.5174 66.8359 32.5034 66.8359H33.646V66.2964C33.646 65.8859 33.5233 65.5601 33.2778 65.3188C33.0324 65.0734 32.6706 64.9507 32.1924 64.9507C31.7734 64.9507 31.4222 65.0565 31.1387 65.2681C30.8551 65.4797 30.7134 65.7357 30.7134 66.0361H29.5327C29.5327 65.6934 29.6533 65.3633 29.8945 65.0459C30.14 64.7243 30.4701 64.4704 30.8848 64.2842C31.3037 64.098 31.7629 64.0049 32.2622 64.0049C33.0535 64.0049 33.6735 64.2038 34.1221 64.6016C34.5706 64.9951 34.8034 65.5389 34.8203 66.2329V69.394C34.8203 70.0246 34.9007 70.526 35.0615 70.8984V71H33.8301ZM31.8813 70.105C32.2495 70.105 32.5986 70.0098 32.9287 69.8193C33.2588 69.6289 33.4979 69.3813 33.646 69.0767V67.6675H32.7256C31.2868 67.6675 30.5674 68.0885 30.5674 68.9307C30.5674 69.2988 30.6901 69.5866 30.9355 69.7939C31.181 70.0013 31.4963 70.105 31.8813 70.105ZM37.772 64.1318L37.8101 64.9951C38.3348 64.335 39.0203 64.0049 39.8667 64.0049C41.3182 64.0049 42.0503 64.8237 42.063 66.4614V71H40.8887V66.4551C40.8844 65.96 40.7702 65.5939 40.5459 65.3569C40.3258 65.12 39.981 65.0015 39.5112 65.0015C39.1304 65.0015 38.7961 65.103 38.5083 65.3062C38.2205 65.5093 37.9963 65.7759 37.8354 66.106V71H36.6611V64.1318H37.772Z" fill="#453F3F"/>
<rect x="12" y="8.76758" width="29.4414" height="36.8998" rx="5" fill="#1774BC"/>
<path d="M39.3686 17.8364H14.1055L14.1055 40.4013C14.1104 42.3684 14.6619 42.9342 16.4657 42.9376H36.9395C39.1276 42.9376 39.3686 42.5328 39.3686 40.4013V17.8364Z" fill="white"/>
<rect x="16.2104" y="27.0671" width="11.336" height="2.42915" rx="1.21457" fill="#62EAF2"/>
<rect x="16.2104" y="31.1157" width="11.336" height="2.42915" rx="1.21457" fill="#62EAF2"/>
<rect x="16.2104" y="35.1643" width="11.336" height="2.42915" rx="1.21457" fill="#62EAF2"/>
<path d="M36.7209 31.6442C36.4421 30.0508 36.0888 29.3077 33.8909 29.1784L32.2527 33.7133L36.7209 31.6442Z" fill="#163F5F"/>
<path d="M37.1012 31.3586C37.1594 29.3326 36.2154 28.3376 33.8623 28.8485L48.3562 14.1926L51.3522 16.8647L37.1012 31.3586Z" fill="#DB3A19"/>
<path d="M51.4603 16.5408L48.7612 14.0109C48.7612 14.0109 49.5035 13.4639 50.1782 13.4639C50.853 13.4639 52.0001 14.6263 52.0001 15.0365C52.0001 15.4468 51.4603 16.5408 51.4603 16.5408Z" fill="#163F5F"/>
<path d="M45.4413 16.0553L45.9271 16.5411L46.6558 15.8124L45.6842 15.0836C45.4448 14.8693 45.2779 14.9777 44.9554 15.3266L40.583 19.5371C40.4528 20.1353 40.6137 20.2581 41.2307 20.1849L45.4413 16.0553Z" fill="#163F5F"/>
</svg>
