<svg width="55" height="75" viewBox="0 0 55 75" fill="none" xmlns="http://www.w3.org/2000/svg">
<rect width="55" height="55" rx="5" fill="white"/>
<path d="M18.7959 67.8804C17.7507 67.5799 16.9889 67.2118 16.5107 66.7759C16.0368 66.3358 15.7998 65.7941 15.7998 65.1509C15.7998 64.423 16.0897 63.8221 16.6694 63.3481C17.2534 62.87 18.0109 62.6309 18.9419 62.6309C19.5767 62.6309 20.1416 62.7536 20.6367 62.999C21.1361 63.2445 21.5212 63.583 21.792 64.0146C22.0671 64.4463 22.2046 64.9181 22.2046 65.4302H20.9795C20.9795 64.8716 20.8018 64.4336 20.4463 64.1162C20.0908 63.7946 19.5894 63.6338 18.9419 63.6338C18.341 63.6338 17.8713 63.7671 17.5327 64.0337C17.1984 64.2961 17.0312 64.6621 17.0312 65.1318C17.0312 65.5085 17.1899 65.828 17.5073 66.0903C17.8289 66.3485 18.3727 66.5854 19.1387 66.8013C19.9089 67.0171 20.5098 67.2562 20.9414 67.5186C21.3773 67.7767 21.6989 68.0793 21.9062 68.4263C22.1178 68.7733 22.2236 69.1816 22.2236 69.6514C22.2236 70.4004 21.9316 71.0013 21.3477 71.4541C20.7637 71.9027 19.9829 72.127 19.0054 72.127C18.3706 72.127 17.7782 72.0063 17.228 71.7651C16.6779 71.5197 16.2526 71.1854 15.9521 70.7622C15.6559 70.339 15.5078 69.8587 15.5078 69.3213H16.7329C16.7329 69.8799 16.9382 70.3221 17.3486 70.6479C17.7633 70.9696 18.3156 71.1304 19.0054 71.1304C19.6486 71.1304 20.1416 70.9992 20.4844 70.7368C20.8271 70.4744 20.9985 70.1169 20.9985 69.6641C20.9985 69.2113 20.8398 68.8621 20.5225 68.6167C20.2051 68.367 19.6296 68.1216 18.7959 67.8804ZM25.0103 68.3818V72H23.7915V62.7578H27.2002C28.2116 62.7578 29.0029 63.016 29.5742 63.5322C30.1497 64.0485 30.4375 64.7319 30.4375 65.5825C30.4375 66.4797 30.1561 67.1715 29.5933 67.6582C29.0347 68.1406 28.2327 68.3818 27.1875 68.3818H25.0103ZM25.0103 67.3853H27.2002C27.8519 67.3853 28.3512 67.2329 28.6982 66.9282C29.0452 66.6193 29.2188 66.175 29.2188 65.5952C29.2188 65.0451 29.0452 64.605 28.6982 64.2749C28.3512 63.9448 27.8752 63.7734 27.27 63.7607H25.0103V67.3853ZM33.2114 68.3818V72H31.9927V62.7578H35.4014C36.4128 62.7578 37.2041 63.016 37.7754 63.5322C38.3509 64.0485 38.6387 64.7319 38.6387 65.5825C38.6387 66.4797 38.3573 67.1715 37.7944 67.6582C37.2358 68.1406 36.4339 68.3818 35.3887 68.3818H33.2114ZM33.2114 67.3853H35.4014C36.0531 67.3853 36.5524 67.2329 36.8994 66.9282C37.2464 66.6193 37.4199 66.175 37.4199 65.5952C37.4199 65.0451 37.2464 64.605 36.8994 64.2749C36.5524 63.9448 36.0763 63.7734 35.4712 63.7607H33.2114V67.3853Z" fill="#453F3F"/>
<path d="M32.7707 33.5934C33.0675 35.3741 33.7353 36.8259 33.7353 39.073H24.4424L25.3677 32.596C25.632 30.7454 20.9753 26.2512 20.9753 26.2512C20.4466 25.3259 19.6535 21.3604 21.5041 20.8317C24.2096 22.7505 24.5337 24.8961 26.6592 28.4983L29.9942 16.3374C29.9942 16.3374 34.6205 20.8317 34.0615 26.2512C33.5026 31.6707 32.7707 33.5934 32.7707 33.5934Z" fill="#FBBA80"/>
<path d="M20.3447 45.1537V40.0393C20.3447 39.0732 20.8111 39.0732 22.0102 39.0732H36.0672C36.9333 39.0732 36.9999 39.3574 36.9999 40.0393V45.1537H20.3447Z" fill="#1B435D"/>
<rect x="14" y="13.4275" width="10.5747" height="19.8276" rx="2" transform="rotate(-18.9124 14 13.4275)" fill="#55DD15"/>
<path d="M33.1667 13.0328C32.7702 12.5041 28.5403 13.0328 28.5403 13.0328C27.6393 19.334 28.2674 22.4691 29.9943 27.5731C30.326 21.419 30.7233 18.0792 33.1667 13.0328Z" fill="#359509"/>
<path d="M29.4654 26.1192C27.9732 19.9888 28.9367 11.0502 28.9367 10.6537C28.9367 10.2571 24.422 11.1174 24.4425 11.4468L29.4654 26.1192Z" fill="#43B70D"/>
<path d="M21.7987 23.7399C22.675 25.7226 23.2526 27.441 24.8083 30.8176C26.3639 34.1943 30.3905 28.6307 30.3905 28.6307C30.3905 28.6307 27.4835 29.202 26.2934 26.0083C25.1033 22.8145 20.9223 21.7571 21.7987 23.7399Z" fill="#FBBA80"/>
</svg>
