<svg width="59" height="75" viewBox="0 0 59 75" fill="none" xmlns="http://www.w3.org/2000/svg">
<rect x="1" width="55" height="55" rx="5" fill="white"/>
<rect x="14" y="10" width="30" height="38" rx="4" fill="#FF7D05"/>
<path d="M17.5527 44.6712V13.7947H40.2561V44.6712H17.5527Z" fill="white"/>
<path d="M35.2957 15.2649H22.5132C22.4336 16.3888 22.5132 17.2541 23.3717 17.2541C24.2301 17.2541 33.5787 17.4271 34.2464 17.2541C34.9141 17.0812 35.3315 16.6671 35.2957 15.2649Z" fill="#696969"/>
<path d="M25.3754 13.5353V9.29733C25.3754 7.65405 22.5137 7.74053 22.5137 9.29733V15.0056C22.5137 16.0434 22.9906 16.0434 24.1353 16.0434H34.1515C35.1054 16.0434 35.2962 15.6975 35.2962 15.0056V9.29733C35.2962 7.56756 32.4345 7.56756 32.4345 9.29733V13.5353H25.3754Z" fill="#C4C4C4"/>
<rect x="29.7036" y="20.0188" width="5.53275" height="5.01635" rx="1" fill="#163F5F"/>
<rect x="31.0986" y="21.2329" width="2.86177" height="2.59466" rx="1" fill="white"/>
<path d="M31.5163 24.3434C30.7532 24.3434 29.5894 22.9596 29.1315 22.4406C28.6737 21.9217 29.5131 20.9703 30.0855 21.4028C30.6578 21.8352 31.5163 22.6136 31.5163 22.6136C31.5163 22.6136 34.6643 19.846 35.2366 19.327C35.809 18.8081 36.7629 19.5865 36.3814 20.1919C35.9998 20.7973 32.2795 24.3434 31.5163 24.3434Z" fill="#55DD15"/>
<path d="M21.1772 22.53C22.1663 22.8845 23.3836 23.1422 24.3028 22.7895C25.3298 23.0899 25.3745 24.0868 24.7068 24.3463C22.9897 24.6058 22.7035 24.6922 20.7956 24.3727C20.0448 24.1645 19.9656 22.9062 21.1772 22.53Z" fill="#54B3B9"/>
<path d="M21.3963 21.7517C22.36 21.9987 23.0483 21.9975 23.944 21.7517C24.8704 21.7517 25.6347 24.0653 24.8704 24.0653C23.1736 24.2125 22.1734 24.2063 20.4766 24.0653C19.9221 24.0653 20.3191 21.8382 21.3963 21.7517Z" fill="#62EAF2"/>
<path d="M24.0391 20.3677C24.0391 21.0364 23.4412 21.665 22.7037 21.665C21.9661 21.665 21.3682 21.0364 21.3682 20.3677C21.3682 19.699 21.9661 19.3298 22.7037 19.3298C23.4412 19.3298 24.0391 19.699 24.0391 20.3677Z" fill="#54B3B9"/>
<ellipse cx="22.7037" cy="20.3678" rx="1.33549" ry="1.21084" fill="#62EAF2"/>
<rect x="29.7017" y="28.3218" width="5.53275" height="5.01635" rx="1" fill="#163F5F"/>
<rect x="31.0962" y="29.5356" width="2.86177" height="2.59466" rx="1" fill="white"/>
<path d="M31.5134 32.6464C30.7503 32.6464 29.5864 31.2626 29.1286 30.7436C28.6708 30.2247 29.5102 29.2733 30.0826 29.7058C30.6549 30.1382 31.5134 30.9166 31.5134 30.9166C31.5134 30.9166 34.6614 28.149 35.2337 27.63C35.8061 27.1111 36.76 27.8895 36.3784 28.4949C35.9969 29.1003 32.2765 32.6464 31.5134 32.6464Z" fill="#55DD15"/>
<path d="M21.1757 30.8328C22.1648 31.1872 23.3821 31.4449 24.3013 31.0922C25.3283 31.3926 25.373 32.3896 24.7053 32.649C22.9882 32.9085 22.7021 32.995 20.7941 32.6754C20.0433 32.4672 19.9641 31.2089 21.1757 30.8328Z" fill="#54B3B9"/>
<path d="M21.3939 30.0547C22.3576 30.3017 23.0459 30.3004 23.9416 30.0547C24.8679 30.0547 25.6322 32.3682 24.8679 32.3682C23.1711 32.5155 22.1709 32.5093 20.4741 32.3682C19.9196 32.3682 20.3166 30.1412 21.3939 30.0547Z" fill="#62EAF2"/>
<path d="M24.0367 28.6707C24.0367 29.3394 23.4388 29.968 22.7012 29.968C21.9636 29.968 21.3657 29.3394 21.3657 28.6707C21.3657 28.0019 21.9636 27.6328 22.7012 27.6328C23.4388 27.6328 24.0367 28.0019 24.0367 28.6707Z" fill="#54B3B9"/>
<ellipse cx="22.7012" cy="28.6708" rx="1.33549" ry="1.21084" fill="#62EAF2"/>
<rect x="29.7017" y="36.7981" width="5.53275" height="5.01635" rx="1" fill="#1B435D"/>
<rect x="31.0962" y="38.012" width="2.86177" height="2.59466" rx="1" fill="white"/>
<path d="M21.1757 39.3091C22.1648 39.6635 23.3821 39.9212 24.3013 39.5685C25.3283 39.869 25.373 40.8659 24.7053 41.1253C22.9882 41.3848 22.7021 41.4713 20.7941 41.1518C20.0433 40.9435 19.9641 39.6852 21.1757 39.3091Z" fill="#54B3B9"/>
<path d="M21.3939 38.5308C22.3576 38.7777 23.0459 38.7765 23.9416 38.5308C24.8679 38.5308 25.6322 40.8443 24.8679 40.8443C23.1711 40.9916 22.1709 40.9854 20.4741 40.8443C19.9196 40.8443 20.3166 38.6173 21.3939 38.5308Z" fill="#62EAF2"/>
<path d="M24.0367 37.1468C24.0367 37.8155 23.4388 38.4441 22.7012 38.4441C21.9636 38.4441 21.3657 37.8155 21.3657 37.1468C21.3657 36.478 21.9636 36.1089 22.7012 36.1089C23.4388 36.1089 24.0367 36.478 24.0367 37.1468Z" fill="#54B3B9"/>
<ellipse cx="22.7012" cy="37.1469" rx="1.33549" ry="1.21084" fill="#62EAF2"/>
<path d="M3.42139 67.7026L2.2915 68.877V72H1.07275V62.7578H2.2915V67.3281L6.39844 62.7578H7.87109L4.23389 66.8394L8.15674 72H6.69678L3.42139 67.7026ZM11.7241 72.127C10.7931 72.127 10.0356 71.8223 9.45166 71.2129C8.86768 70.5993 8.57568 69.7804 8.57568 68.7563V68.5405C8.57568 67.8592 8.70475 67.252 8.96289 66.7188C9.22526 66.1813 9.58919 65.7624 10.0547 65.4619C10.5244 65.1572 11.0322 65.0049 11.5781 65.0049C12.471 65.0049 13.165 65.299 13.6602 65.8872C14.1553 66.4754 14.4028 67.3175 14.4028 68.4136V68.9023H9.75C9.76693 69.5794 9.9637 70.1274 10.3403 70.5464C10.7212 70.9611 11.2036 71.1685 11.7876 71.1685C12.2023 71.1685 12.5535 71.0838 12.8413 70.9146C13.1291 70.7453 13.3809 70.521 13.5967 70.2417L14.314 70.8003C13.7384 71.6847 12.8752 72.127 11.7241 72.127ZM11.5781 65.9697C11.1042 65.9697 10.7064 66.1432 10.3848 66.4902C10.0632 66.833 9.86426 67.3154 9.78809 67.9375H13.2285V67.8486C13.1947 67.252 13.0339 66.7907 12.7461 66.4648C12.4583 66.1348 12.069 65.9697 11.5781 65.9697ZM16.9419 65.9634C17.4624 65.3244 18.1395 65.0049 18.9731 65.0049C20.4246 65.0049 21.1567 65.8237 21.1694 67.4614V72H19.9951V67.4551C19.9909 66.96 19.8766 66.5939 19.6523 66.3569C19.4323 66.12 19.0874 66.0015 18.6177 66.0015C18.2368 66.0015 17.9025 66.103 17.6147 66.3062C17.327 66.5093 17.1027 66.7759 16.9419 67.106V72H15.7676V62.25H16.9419V65.9634ZM27.168 72C27.1003 71.8646 27.0452 71.6234 27.0029 71.2764C26.457 71.8434 25.8053 72.127 25.0479 72.127C24.3708 72.127 23.8143 71.9365 23.3784 71.5557C22.9468 71.1706 22.731 70.6839 22.731 70.0957C22.731 69.3805 23.0018 68.8262 23.5435 68.4326C24.0894 68.0348 24.8553 67.8359 25.8413 67.8359H26.9839V67.2964C26.9839 66.8859 26.8612 66.5601 26.6157 66.3188C26.3703 66.0734 26.0085 65.9507 25.5303 65.9507C25.1113 65.9507 24.7601 66.0565 24.4766 66.2681C24.193 66.4797 24.0513 66.7357 24.0513 67.0361H22.8706C22.8706 66.6934 22.9912 66.3633 23.2324 66.0459C23.4779 65.7243 23.8079 65.4704 24.2227 65.2842C24.6416 65.098 25.1007 65.0049 25.6001 65.0049C26.3914 65.0049 27.0114 65.2038 27.46 65.6016C27.9085 65.9951 28.1413 66.5389 28.1582 67.2329V70.394C28.1582 71.0246 28.2386 71.526 28.3994 71.8984V72H27.168ZM25.2192 71.105C25.5874 71.105 25.9365 71.0098 26.2666 70.8193C26.5967 70.6289 26.8358 70.3813 26.9839 70.0767V68.6675H26.0635C24.6247 68.6675 23.9053 69.0885 23.9053 69.9307C23.9053 70.2988 24.028 70.5866 24.2734 70.7939C24.5189 71.0013 24.8341 71.105 25.2192 71.105ZM29.7134 68.5088C29.7134 67.4551 29.9631 66.6087 30.4624 65.9697C30.9618 65.3265 31.6156 65.0049 32.4238 65.0049C33.2279 65.0049 33.8647 65.2799 34.3345 65.8301V62.25H35.5088V72H34.4297L34.3726 71.2637C33.9028 71.8392 33.249 72.127 32.4111 72.127C31.6156 72.127 30.966 71.8011 30.4624 71.1494C29.9631 70.4977 29.7134 69.6471 29.7134 68.5977V68.5088ZM30.8877 68.6421C30.8877 69.4207 31.0485 70.0301 31.3701 70.4702C31.6917 70.9103 32.1361 71.1304 32.7031 71.1304C33.4479 71.1304 33.9917 70.7961 34.3345 70.1274V66.9727C33.9832 66.3252 33.4437 66.0015 32.7158 66.0015C32.1403 66.0015 31.6917 66.2236 31.3701 66.668C31.0485 67.1123 30.8877 67.7703 30.8877 68.6421ZM38.6128 72H37.4385V65.1318H38.6128V72ZM37.3433 63.3101C37.3433 63.1196 37.4004 62.9588 37.5146 62.8276C37.6331 62.6965 37.8066 62.6309 38.0352 62.6309C38.2637 62.6309 38.4372 62.6965 38.5557 62.8276C38.6742 62.9588 38.7334 63.1196 38.7334 63.3101C38.7334 63.5005 38.6742 63.6592 38.5557 63.7861C38.4372 63.9131 38.2637 63.9766 38.0352 63.9766C37.8066 63.9766 37.6331 63.9131 37.5146 63.7861C37.4004 63.6592 37.3433 63.5005 37.3433 63.3101ZM43.8179 66.1855C43.6401 66.1559 43.4476 66.1411 43.2402 66.1411C42.4701 66.1411 41.9474 66.4691 41.6724 67.125V72H40.498V65.1318H41.6406L41.6597 65.9253C42.0448 65.3117 42.5907 65.0049 43.2974 65.0049C43.5259 65.0049 43.6994 65.0345 43.8179 65.0938V66.1855ZM48.8896 72C48.8219 71.8646 48.7669 71.6234 48.7246 71.2764C48.1787 71.8434 47.527 72.127 46.7695 72.127C46.0924 72.127 45.536 71.9365 45.1001 71.5557C44.6685 71.1706 44.4526 70.6839 44.4526 70.0957C44.4526 69.3805 44.7235 68.8262 45.2651 68.4326C45.811 68.0348 46.577 67.8359 47.563 67.8359H48.7056V67.2964C48.7056 66.8859 48.5828 66.5601 48.3374 66.3188C48.092 66.0734 47.7301 65.9507 47.252 65.9507C46.833 65.9507 46.4818 66.0565 46.1982 66.2681C45.9147 66.4797 45.7729 66.7357 45.7729 67.0361H44.5923C44.5923 66.6934 44.7129 66.3633 44.9541 66.0459C45.1995 65.7243 45.5296 65.4704 45.9443 65.2842C46.3633 65.098 46.8224 65.0049 47.3218 65.0049C48.1131 65.0049 48.7331 65.2038 49.1816 65.6016C49.6302 65.9951 49.863 66.5389 49.8799 67.2329V70.394C49.8799 71.0246 49.9603 71.526 50.1211 71.8984V72H48.8896ZM46.9409 71.105C47.3091 71.105 47.6582 71.0098 47.9883 70.8193C48.3184 70.6289 48.5575 70.3813 48.7056 70.0767V68.6675H47.7852C46.3464 68.6675 45.627 69.0885 45.627 69.9307C45.627 70.2988 45.7497 70.5866 45.9951 70.7939C46.2406 71.0013 46.5558 71.105 46.9409 71.105ZM52.8315 65.1318L52.8696 65.9951C53.3944 65.335 54.0799 65.0049 54.9263 65.0049C56.3778 65.0049 57.1099 65.8237 57.1226 67.4614V72H55.9482V67.4551C55.944 66.96 55.8298 66.5939 55.6055 66.3569C55.3854 66.12 55.0405 66.0015 54.5708 66.0015C54.1899 66.0015 53.8556 66.103 53.5679 66.3062C53.2801 66.5093 53.0558 66.7759 52.895 67.106V72H51.7207V65.1318H52.8315Z" fill="#453F3F"/>
</svg>
