<svg width="55" height="74" viewBox="0 0 55 74" fill="none" xmlns="http://www.w3.org/2000/svg">
<path d="M7.68262 67.3818V71H6.46387V61.7578H9.87256C10.884 61.7578 11.6753 62.016 12.2466 62.5322C12.8221 63.0485 13.1099 63.7319 13.1099 64.5825C13.1099 65.4797 12.8285 66.1715 12.2656 66.6582C11.707 67.1406 10.9051 67.3818 9.85986 67.3818H7.68262ZM7.68262 66.3853H9.87256C10.5243 66.3853 11.0236 66.2329 11.3706 65.9282C11.7176 65.6193 11.8911 65.175 11.8911 64.5952C11.8911 64.0451 11.7176 63.605 11.3706 63.2749C11.0236 62.9448 10.5475 62.7734 9.94238 62.7607H7.68262V66.3853ZM17.2422 71.127C16.3112 71.127 15.5537 70.8223 14.9697 70.2129C14.3857 69.5993 14.0938 68.7804 14.0938 67.7563V67.5405C14.0938 66.8592 14.2228 66.252 14.481 65.7188C14.7433 65.1813 15.1073 64.7624 15.5728 64.4619C16.0425 64.1572 16.5503 64.0049 17.0962 64.0049C17.9891 64.0049 18.6831 64.299 19.1782 64.8872C19.6733 65.4754 19.9209 66.3175 19.9209 67.4136V67.9023H15.2681C15.285 68.5794 15.4818 69.1274 15.8584 69.5464C16.2393 69.9611 16.7217 70.1685 17.3057 70.1685C17.7204 70.1685 18.0716 70.0838 18.3594 69.9146C18.6471 69.7453 18.8989 69.521 19.1147 69.2417L19.832 69.8003C19.2565 70.6847 18.3932 71.127 17.2422 71.127ZM17.0962 64.9697C16.6222 64.9697 16.2244 65.1432 15.9028 65.4902C15.5812 65.833 15.3823 66.3154 15.3062 66.9375H18.7466V66.8486C18.7127 66.252 18.5519 65.7907 18.2642 65.4648C17.9764 65.1348 17.5871 64.9697 17.0962 64.9697ZM24.6055 65.1855C24.4277 65.1559 24.2352 65.1411 24.0278 65.1411C23.2576 65.1411 22.735 65.4691 22.46 66.125V71H21.2856V64.1318H22.4282L22.4473 64.9253C22.8324 64.3117 23.3783 64.0049 24.085 64.0049C24.3135 64.0049 24.487 64.0345 24.6055 64.0938V65.1855ZM26.9668 71H25.7925V64.1318H26.9668V71ZM25.6973 62.3101C25.6973 62.1196 25.7544 61.9588 25.8687 61.8276C25.9871 61.6965 26.1606 61.6309 26.3892 61.6309C26.6177 61.6309 26.7912 61.6965 26.9097 61.8276C27.0282 61.9588 27.0874 62.1196 27.0874 62.3101C27.0874 62.5005 27.0282 62.6592 26.9097 62.7861C26.7912 62.9131 26.6177 62.9766 26.3892 62.9766C26.1606 62.9766 25.9871 62.9131 25.8687 62.7861C25.7544 62.6592 25.6973 62.5005 25.6973 62.3101ZM28.541 67.5024C28.541 66.8296 28.6722 66.2244 28.9346 65.687C29.2012 65.1496 29.5693 64.7349 30.0391 64.4429C30.513 64.1509 31.0526 64.0049 31.6577 64.0049C32.5929 64.0049 33.3483 64.3286 33.9238 64.9761C34.5036 65.6235 34.7935 66.4847 34.7935 67.5596V67.6421C34.7935 68.3107 34.6644 68.9116 34.4062 69.4448C34.1523 69.9738 33.7863 70.3864 33.3081 70.6826C32.8341 70.9788 32.2882 71.127 31.6704 71.127C30.7394 71.127 29.984 70.8032 29.4043 70.1558C28.8288 69.5083 28.541 68.6514 28.541 67.585V67.5024ZM29.7217 67.6421C29.7217 68.4038 29.8973 69.0153 30.2485 69.4766C30.604 69.9378 31.078 70.1685 31.6704 70.1685C32.2671 70.1685 32.741 69.9357 33.0923 69.4702C33.4435 69.0005 33.6191 68.3446 33.6191 67.5024C33.6191 66.7492 33.4393 66.1398 33.0796 65.6743C32.7241 65.2046 32.2502 64.9697 31.6577 64.9697C31.078 64.9697 30.6104 65.2004 30.2549 65.6616C29.8994 66.1229 29.7217 66.783 29.7217 67.6421ZM35.9805 67.5088C35.9805 66.4551 36.2301 65.6087 36.7295 64.9697C37.2288 64.3265 37.8826 64.0049 38.6909 64.0049C39.495 64.0049 40.1318 64.2799 40.6016 64.8301V61.25H41.7759V71H40.6968L40.6396 70.2637C40.1699 70.8392 39.5161 71.127 38.6782 71.127C37.8826 71.127 37.2331 70.8011 36.7295 70.1494C36.2301 69.4977 35.9805 68.6471 35.9805 67.5977V67.5088ZM37.1548 67.6421C37.1548 68.4207 37.3156 69.0301 37.6372 69.4702C37.9588 69.9103 38.4032 70.1304 38.9702 70.1304C39.715 70.1304 40.2588 69.7961 40.6016 69.1274V65.9727C40.2503 65.3252 39.7108 65.0015 38.9829 65.0015C38.4074 65.0015 37.9588 65.2236 37.6372 65.668C37.3156 66.1123 37.1548 66.7703 37.1548 67.6421ZM46.4541 71.127C45.5231 71.127 44.7656 70.8223 44.1816 70.2129C43.5977 69.5993 43.3057 68.7804 43.3057 67.7563V67.5405C43.3057 66.8592 43.4347 66.252 43.6929 65.7188C43.9552 65.1813 44.3192 64.7624 44.7847 64.4619C45.2544 64.1572 45.7622 64.0049 46.3081 64.0049C47.201 64.0049 47.895 64.299 48.3901 64.8872C48.8853 65.4754 49.1328 66.3175 49.1328 67.4136V67.9023H44.48C44.4969 68.5794 44.6937 69.1274 45.0703 69.5464C45.4512 69.9611 45.9336 70.1685 46.5176 70.1685C46.9323 70.1685 47.2835 70.0838 47.5713 69.9146C47.859 69.7453 48.1108 69.521 48.3267 69.2417L49.0439 69.8003C48.4684 70.6847 47.6051 71.127 46.4541 71.127ZM46.3081 64.9697C45.8341 64.9697 45.4364 65.1432 45.1147 65.4902C44.7931 65.833 44.5942 66.3154 44.5181 66.9375H47.9585V66.8486C47.9246 66.252 47.7638 65.7907 47.4761 65.4648C47.1883 65.1348 46.799 64.9697 46.3081 64.9697Z" fill="#453F3F"/>
<path d="M0 5C0 2.23857 2.23858 0 5 0H50C52.7614 0 55 2.23858 55 5V50C55 52.7614 52.7614 55 50 55H5C2.23857 55 0 52.7614 0 50V5Z" fill="white"/>
<g filter="url(#filter0_d)">
<circle cx="27.5" cy="26.5" r="21.5" fill="#4AF0FB"/>
</g>
<path d="M30.3979 47.798L13.2788 37.2839L42.3274 16.9971C42.0241 17.2364 47.9888 23.9391 48.7976 26.3654C49.6064 28.7917 46.7344 45.8417 30.3979 47.798Z" fill="url(#paint0_linear)" fill-opacity="0.6"/>
<path d="M13.7524 18.6231C13.7525 16.4738 14.7256 16.5111 17.7459 16.4738C20.7662 16.4366 39.4603 16.4738 39.4603 16.4738C42.7882 16.4738 43.2042 16.8493 43.2042 18.6231V21.6841H13.7524V18.6231Z" fill="#C53618"/>
<path d="M13.7524 31.0201C13.7525 37.5752 14.7256 37.4616 17.7459 37.5752C20.7662 37.6889 39.4603 37.5752 39.4603 37.5752C42.7882 37.5752 43.2042 36.3834 43.2042 31.0201V21.6841H13.7524V31.0201Z" fill="#CECDCD"/>
<path d="M12.9473 18.6235C12.9473 16.4743 13.9204 16.5116 16.9407 16.4743C19.9611 16.4371 38.6551 16.4743 38.6551 16.4743C41.983 16.4743 42.399 16.9804 42.399 18.6235V21.6845H12.9473V18.6235Z" fill="#DB3A19"/>
<path d="M12.9468 31.0204C12.9468 37.5755 13.9199 37.4618 16.9402 37.5755C19.9606 37.6891 38.6547 37.5755 38.6547 37.5755C41.9825 37.5755 42.3985 36.3836 42.3985 31.0204V21.6843H12.9468V31.0204Z" fill="#FDFCFC"/>
<path d="M12.4863 18.6231C12.4863 16.4738 13.4594 16.5111 16.4798 16.4738C19.5001 16.4366 38.1942 16.4738 38.1942 16.4738C41.5221 16.4738 41.9381 16.8493 41.9381 18.6231V21.6841H12.4863V18.6231Z" fill="#C53618"/>
<path d="M12.4863 31.0201C12.4863 37.5752 13.4594 37.4616 16.4798 37.5752C19.5001 37.6889 38.1942 37.5752 38.1942 37.5752C41.5221 37.5752 41.9381 36.3834 41.9381 31.0201V21.6841H12.4863V31.0201Z" fill="#CECDCD"/>
<path d="M11.7959 18.6238C11.7959 16.4746 12.769 16.5118 15.7894 16.4746C18.8097 16.4373 37.5038 16.4746 37.5038 16.4746C40.8317 16.4746 41.2476 16.9807 41.2476 18.6238V21.6848H11.7959V18.6238Z" fill="#DB3A19"/>
<path d="M11.7959 31.0204C11.7959 37.5755 12.769 37.4618 15.7894 37.5755C18.8097 37.6891 37.5038 37.5755 37.5038 37.5755C40.8317 37.5755 41.2476 36.3836 41.2476 31.0204V21.6843H11.7959V31.0204Z" fill="#FDFCFC"/>
<rect x="20.5576" y="23.1975" width="2.69592" height="2.69592" fill="#C4C4C4"/>
<rect x="24.6021" y="23.1975" width="2.69592" height="2.69592" fill="#C4C4C4"/>
<rect x="28.646" y="23.1975" width="2.69592" height="2.69592" fill="#C4C4C4"/>
<rect x="16.3789" y="27.3762" width="2.69592" height="2.69592" fill="#C4C4C4"/>
<rect x="20.4233" y="27.3762" width="2.69592" height="2.69592" fill="#C4C4C4"/>
<rect x="24.4673" y="27.3762" width="2.69592" height="2.69592" fill="#C4C4C4"/>
<rect x="24.4673" y="31.6895" width="2.69592" height="2.69592" fill="#C4C4C4"/>
<rect x="16.3789" y="31.6895" width="2.69592" height="2.69592" fill="#C4C4C4"/>
<rect x="20.4233" y="31.6895" width="2.69592" height="2.69592" fill="#C4C4C4"/>
<rect x="32.6895" y="31.6895" width="2.69592" height="2.69592" fill="#C4C4C4"/>
<rect x="28.646" y="31.6895" width="2.69592" height="2.69592" fill="#C4C4C4"/>
<rect x="28.5107" y="27.3762" width="2.69592" height="2.69592" fill="#C4C4C4"/>
<rect x="32.5552" y="27.3762" width="2.69592" height="2.69592" fill="#C4C4C4"/>
<rect x="32.6895" y="23.1975" width="2.69592" height="2.69592" fill="#DB3A19"/>
<rect x="22.1758" y="12.2788" width="1.88715" height="5.93103" rx="0.943574" fill="#D8D6D6"/>
<rect x="31.0723" y="12.2788" width="1.88715" height="5.93103" rx="0.943574" fill="#D8D6D6"/>
<rect x="21.771" y="12.2791" width="1.88715" height="5.93103" rx="0.943574" fill="white"/>
<rect x="30.668" y="12.2788" width="1.88715" height="5.93103" rx="0.943574" fill="white"/>
<defs>
<filter id="filter0_d" x="4" y="4" width="47" height="47" filterUnits="userSpaceOnUse" color-interpolation-filters="sRGB">
<feFlood flood-opacity="0" result="BackgroundImageFix"/>
<feColorMatrix in="SourceAlpha" type="matrix" values="0 0 0 0 0 0 0 0 0 0 0 0 0 0 0 0 0 0 127 0"/>
<feOffset dy="1"/>
<feGaussianBlur stdDeviation="1"/>
<feColorMatrix type="matrix" values="0 0 0 0 0 0 0 0 0 0 0 0 0 0 0 0 0 0 0.25 0"/>
<feBlend mode="normal" in2="BackgroundImageFix" result="effect1_dropShadow"/>
<feBlend mode="normal" in="SourceGraphic" in2="effect1_dropShadow" result="shape"/>
</filter>
<linearGradient id="paint0_linear" x1="18.2663" y1="20.9736" x2="41.249" y2="66.3325" gradientUnits="userSpaceOnUse">
<stop stop-color="#54B3B9"/>
<stop offset="1" stop-color="#163F5F" stop-opacity="0"/>
</linearGradient>
</defs>
</svg>
