<svg width="55" height="75" viewBox="0 0 55 75" fill="none" xmlns="http://www.w3.org/2000/svg">
<rect width="55" height="55" rx="5" fill="white"/>
<path d="M11.9448 62.7578H13.1699V69.3022C13.1699 70.1867 12.9033 70.8786 12.3701 71.3779C11.8411 71.8773 11.1344 72.127 10.25 72.127C9.33171 72.127 8.61654 71.8921 8.10449 71.4224C7.59245 70.9526 7.33643 70.2946 7.33643 69.4482H8.55518C8.55518 69.9772 8.69906 70.3898 8.98682 70.686C9.27881 70.9823 9.69987 71.1304 10.25 71.1304C10.7536 71.1304 11.1598 70.9717 11.4688 70.6543C11.7819 70.3369 11.9406 69.8926 11.9448 69.3213V62.7578ZM19.3018 72C19.234 71.8646 19.179 71.6234 19.1367 71.2764C18.5908 71.8434 17.9391 72.127 17.1816 72.127C16.5046 72.127 15.9481 71.9365 15.5122 71.5557C15.0806 71.1706 14.8647 70.6839 14.8647 70.0957C14.8647 69.3805 15.1356 68.8262 15.6772 68.4326C16.2231 68.0348 16.9891 67.8359 17.9751 67.8359H19.1177V67.2964C19.1177 66.8859 18.995 66.5601 18.7495 66.3188C18.5041 66.0734 18.1423 65.9507 17.6641 65.9507C17.2451 65.9507 16.8939 66.0565 16.6104 66.2681C16.3268 66.4797 16.1851 66.7357 16.1851 67.0361H15.0044C15.0044 66.6934 15.125 66.3633 15.3662 66.0459C15.6117 65.7243 15.9417 65.4704 16.3564 65.2842C16.7754 65.098 17.2345 65.0049 17.7339 65.0049C18.5252 65.0049 19.1452 65.2038 19.5938 65.6016C20.0423 65.9951 20.2751 66.5389 20.292 67.2329V70.394C20.292 71.0246 20.3724 71.526 20.5332 71.8984V72H19.3018ZM17.353 71.105C17.7212 71.105 18.0703 71.0098 18.4004 70.8193C18.7305 70.6289 18.9696 70.3813 19.1177 70.0767V68.6675H18.1973C16.7585 68.6675 16.0391 69.0885 16.0391 69.9307C16.0391 70.2988 16.1618 70.5866 16.4072 70.7939C16.6527 71.0013 16.9679 71.105 17.353 71.105ZM21.8472 68.5088C21.8472 67.4551 22.0968 66.6087 22.5962 65.9697C23.0955 65.3265 23.7493 65.0049 24.5576 65.0049C25.3617 65.0049 25.9985 65.2799 26.4683 65.8301V62.25H27.6426V72H26.5635L26.5063 71.2637C26.0366 71.8392 25.3828 72.127 24.5449 72.127C23.7493 72.127 23.0998 71.8011 22.5962 71.1494C22.0968 70.4977 21.8472 69.6471 21.8472 68.5977V68.5088ZM23.0215 68.6421C23.0215 69.4207 23.1823 70.0301 23.5039 70.4702C23.8255 70.9103 24.2699 71.1304 24.8369 71.1304C25.5817 71.1304 26.1255 70.7961 26.4683 70.1274V66.9727C26.117 66.3252 25.5775 66.0015 24.8496 66.0015C24.2741 66.0015 23.8255 66.2236 23.5039 66.668C23.1823 67.1123 23.0215 67.7703 23.0215 68.6421ZM35.5518 70.3813L36.8721 65.1318H38.0464L36.0469 72H35.0947L33.4253 66.7949L31.8003 72H30.8481L28.855 65.1318H30.0229L31.375 70.2734L32.9746 65.1318H33.9204L35.5518 70.3813ZM43.4863 72C43.4186 71.8646 43.3636 71.6234 43.3213 71.2764C42.7754 71.8434 42.1237 72.127 41.3662 72.127C40.6891 72.127 40.1326 71.9365 39.6968 71.5557C39.2651 71.1706 39.0493 70.6839 39.0493 70.0957C39.0493 69.3805 39.3201 68.8262 39.8618 68.4326C40.4077 68.0348 41.1737 67.8359 42.1597 67.8359H43.3022V67.2964C43.3022 66.8859 43.1795 66.5601 42.9341 66.3188C42.6886 66.0734 42.3268 65.9507 41.8486 65.9507C41.4297 65.9507 41.0785 66.0565 40.7949 66.2681C40.5114 66.4797 40.3696 66.7357 40.3696 67.0361H39.189C39.189 66.6934 39.3096 66.3633 39.5508 66.0459C39.7962 65.7243 40.1263 65.4704 40.541 65.2842C40.96 65.098 41.4191 65.0049 41.9185 65.0049C42.7098 65.0049 43.3298 65.2038 43.7783 65.6016C44.2269 65.9951 44.4596 66.5389 44.4766 67.2329V70.394C44.4766 71.0246 44.557 71.526 44.7178 71.8984V72H43.4863ZM41.5376 71.105C41.9058 71.105 42.2549 71.0098 42.585 70.8193C42.915 70.6289 43.1541 70.3813 43.3022 70.0767V68.6675H42.3818C40.943 68.6675 40.2236 69.0885 40.2236 69.9307C40.2236 70.2988 40.3464 70.5866 40.5918 70.7939C40.8372 71.0013 41.1525 71.105 41.5376 71.105ZM47.5933 72H46.4189V62.25H47.5933V72Z" fill="#453F3F"/>
<path d="M5.82178 11.3686C5.8218 8.7739 6.74145 8.81889 9.59594 8.7739C12.4504 8.72891 30.1179 8.7739 30.1179 8.7739C33.2631 8.7739 33.6562 9.24568 33.6562 11.3686V15.0642H5.82178V11.3686Z" fill="#DB3A19"/>
<path d="M5.82178 26.3001C5.8218 34.189 6.74145 34.0522 9.59594 34.189C12.4504 34.3257 30.1179 34.189 30.1179 34.189C33.2631 34.189 33.6562 32.7546 33.6562 26.3001V15.0644H5.82178V26.3001Z" fill="#DFDFDF"/>
<path d="M30.1141 33.689H30.1179C30.8772 33.689 31.4004 33.6003 31.7772 33.4152C32.1316 33.2412 32.3991 32.9608 32.6058 32.4707C32.8205 31.9616 32.9627 31.2403 33.0473 30.2146C33.1315 29.1945 33.1562 27.9122 33.1562 26.3001V15.5644H6.32178V26.3001C6.32178 28.2667 6.37932 29.7137 6.50658 30.7825C6.63489 31.8601 6.82891 32.5008 7.06614 32.8926C7.28339 33.2514 7.5497 33.4235 7.93049 33.5248C8.32003 33.6284 8.79617 33.6508 9.44879 33.6814C9.50451 33.6841 9.56152 33.6867 9.61987 33.6895C11.0306 33.7571 16.1431 33.7574 20.9256 33.7403C23.3118 33.7317 25.609 33.7189 27.3097 33.7082C28.16 33.7029 28.8611 33.6981 29.3497 33.6946L29.9151 33.6905L30.0634 33.6894L30.1013 33.6891L30.1109 33.689L30.1133 33.689L30.1139 33.689C30.114 33.689 30.1141 33.689 30.1179 34.189L30.1141 33.689Z" fill="#FDFCFC" stroke="#1774BC"/>
<rect x="13.0552" y="5" width="2.20159" height="6.9193" rx="1.1008" fill="#1774BC"/>
<rect x="17.5571" y="16.637" width="1.40564" height="4.41774" rx="0.702822" transform="rotate(44.3123 17.5571 16.637)" fill="#62EAF2"/>
<rect width="1.40564" height="4.41774" rx="0.702822" transform="matrix(-0.62515 0.780505 0.780505 0.62515 15.1929 16.7944)" fill="#62EAF2"/>
<rect x="23.8477" y="16.637" width="1.40564" height="4.41774" rx="0.702822" transform="rotate(44.3123 23.8477 16.637)" fill="#62EAF2"/>
<rect width="1.40564" height="4.41774" rx="0.702822" transform="matrix(-0.62515 0.780505 0.780505 0.62515 21.4834 16.7944)" fill="#62EAF2"/>
<rect x="30.1377" y="16.637" width="1.40564" height="4.41774" rx="0.702822" transform="rotate(44.3123 30.1377 16.637)" fill="#62EAF2"/>
<rect width="1.40564" height="4.41774" rx="0.702822" transform="matrix(-0.62515 0.780505 0.780505 0.62515 27.7734 16.7944)" fill="#62EAF2"/>
<rect x="11.4238" y="21.9836" width="1.40564" height="4.41774" rx="0.702822" transform="rotate(44.3123 11.4238 21.9836)" fill="#62EAF2"/>
<rect width="1.40564" height="4.41774" rx="0.702822" transform="matrix(-0.62515 0.780505 0.780505 0.62515 9.05908 22.1411)" fill="#62EAF2"/>
<rect x="17.5571" y="21.8267" width="1.40564" height="4.41774" rx="0.702822" transform="rotate(44.3123 17.5571 21.8267)" fill="#62EAF2"/>
<rect width="1.40564" height="4.41774" rx="0.702822" transform="matrix(-0.62515 0.780505 0.780505 0.62515 15.1929 21.9841)" fill="#62EAF2"/>
<rect x="24.0049" y="21.6692" width="1.40564" height="4.41774" rx="0.702822" transform="rotate(44.3123 24.0049 21.6692)" fill="#62EAF2"/>
<rect width="1.40564" height="4.41774" rx="0.702822" transform="matrix(-0.62515 0.780505 0.780505 0.62515 21.6401 21.8264)" fill="#62EAF2"/>
<rect x="11.5811" y="27.8022" width="1.40564" height="4.41774" rx="0.702822" transform="rotate(44.3123 11.5811 27.8022)" fill="#62EAF2"/>
<rect width="1.40564" height="4.41774" rx="0.702822" transform="matrix(-0.62515 0.780505 0.780505 0.62515 9.2168 27.9595)" fill="#62EAF2"/>
<rect x="17.5571" y="27.645" width="1.40564" height="4.41774" rx="0.702822" transform="rotate(44.3123 17.5571 27.645)" fill="#62EAF2"/>
<rect width="1.40564" height="4.41774" rx="0.702822" transform="matrix(-0.62515 0.780505 0.780505 0.62515 15.1929 27.8025)" fill="#62EAF2"/>
<rect x="24.1616" y="27.3306" width="1.40564" height="4.41774" rx="0.702822" transform="rotate(44.3123 24.1616 27.3306)" fill="#62EAF2"/>
<rect width="1.40564" height="4.41774" rx="0.702822" transform="matrix(-0.62515 0.780505 0.780505 0.62515 21.7974 27.4878)" fill="#62EAF2"/>
<rect x="30.1377" y="27.3306" width="1.40564" height="4.41774" rx="0.702822" transform="rotate(44.3123 30.1377 27.3306)" fill="#62EAF2"/>
<rect width="1.40564" height="4.41774" rx="0.702822" transform="matrix(-0.62515 0.780505 0.780505 0.62515 27.7734 27.488)" fill="#62EAF2"/>
<rect x="30.1377" y="21.6692" width="1.40564" height="4.41774" rx="0.702822" transform="rotate(44.3123 30.1377 21.6692)" fill="#62EAF2"/>
<rect width="1.40564" height="4.41774" rx="0.702822" transform="matrix(-0.62515 0.780505 0.780505 0.62515 27.7734 21.8267)" fill="#62EAF2"/>
<rect x="23.4351" y="5" width="2.20159" height="6.9193" rx="1.1008" fill="#1774BC"/>
<ellipse cx="38.689" cy="34.7477" rx="13.0523" ry="13.5942" fill="#FF7D05"/>
<ellipse cx="36.0152" cy="34.5842" rx="13.0523" ry="13.5942" fill="#FFC805"/>
<ellipse cx="35.937" cy="34.6659" rx="10.3003" ry="10.7279" fill="#FDFCFC"/>
<ellipse cx="35.7797" cy="34.666" rx="1.96571" ry="2.04732" fill="#163F5F"/>
<ellipse cx="35.7789" cy="34.6657" rx="0.707655" ry="0.737034" fill="#FFC805"/>
<path d="M34.9146 26.0671C34.9145 25.3301 36.4871 25.1663 36.4871 26.0671C36.4871 26.968 36.4871 32.9461 36.4871 32.9461H34.9146C34.9146 32.9461 34.9146 26.8042 34.9146 26.0671Z" fill="#163F5F"/>
<path d="M29.1284 35.5667C28.5252 35.5667 28.3912 33.9288 29.1284 33.9288C29.8655 33.9288 34.7575 33.9288 34.7575 33.9288V35.5667C34.7575 35.5667 29.7315 35.5666 29.1284 35.5667Z" fill="#163F5F"/>
<path d="M42.0127 35.5661C41.3883 35.5654 41.3216 33.9478 42.0127 33.9487C42.7039 33.9497 43.4448 33.9034 44.0639 33.9487C44.683 33.9941 44.6254 35.601 44.0639 35.5661C43.5024 35.5312 42.6372 35.5667 42.0127 35.5661Z" fill="#163F5F"/>
<path d="M34.9151 40.8303C34.9157 40.1799 36.4689 40.1105 36.468 40.8303C36.4671 41.5502 36.5115 42.3219 36.468 42.9667C36.4244 43.6115 34.8816 43.5515 34.9151 42.9667C34.9486 42.3819 34.9145 41.4807 34.9151 40.8303Z" fill="#163F5F"/>
<path d="M24.9287 33.6012C26.3916 28.0055 29.5423 24.311 33.7585 23.6976C34.2172 23.5611 34.2069 23.037 33.7123 22.8865C29.1044 22.4196 24.3664 29.6003 23.9939 33.2889C23.9292 33.9287 24.6142 34.2563 24.9287 33.6012Z" fill="white" fill-opacity="0.5"/>
</svg>
