<svg width="57" height="74" viewBox="0 0 57 74" fill="none" xmlns="http://www.w3.org/2000/svg">
<path d="M13.5767 67.2612H11.4058V71H10.1807V61.7578H13.2402C14.2812 61.7578 15.0811 61.9948 15.6396 62.4688C16.2025 62.9427 16.4839 63.6325 16.4839 64.5381C16.4839 65.1136 16.3273 65.6151 16.0142 66.0425C15.7052 66.4699 15.2736 66.7894 14.7192 67.001L16.8901 70.9238V71H15.5825L13.5767 67.2612ZM11.4058 66.2646H13.2783C13.8835 66.2646 14.3638 66.1081 14.7192 65.7949C15.0789 65.4818 15.2588 65.0628 15.2588 64.5381C15.2588 63.9668 15.0874 63.5288 14.7446 63.2241C14.4061 62.9194 13.9152 62.765 13.272 62.7607H11.4058V66.2646ZM22.2539 71C22.1862 70.8646 22.1312 70.6234 22.0889 70.2764C21.543 70.8434 20.8913 71.127 20.1338 71.127C19.4567 71.127 18.9002 70.9365 18.4644 70.5557C18.0327 70.1706 17.8169 69.6839 17.8169 69.0957C17.8169 68.3805 18.0877 67.8262 18.6294 67.4326C19.1753 67.0348 19.9412 66.8359 20.9272 66.8359H22.0698V66.2964C22.0698 65.8859 21.9471 65.5601 21.7017 65.3188C21.4562 65.0734 21.0944 64.9507 20.6162 64.9507C20.1973 64.9507 19.846 65.0565 19.5625 65.2681C19.279 65.4797 19.1372 65.7357 19.1372 66.0361H17.9565C17.9565 65.6934 18.0771 65.3633 18.3184 65.0459C18.5638 64.7243 18.8939 64.4704 19.3086 64.2842C19.7275 64.098 20.1867 64.0049 20.686 64.0049C21.4774 64.0049 22.0973 64.2038 22.5459 64.6016C22.9945 64.9951 23.2272 65.5389 23.2441 66.2329V69.394C23.2441 70.0246 23.3245 70.526 23.4854 70.8984V71H22.2539ZM20.3052 70.105C20.6733 70.105 21.0225 70.0098 21.3525 69.8193C21.6826 69.6289 21.9217 69.3813 22.0698 69.0767V67.6675H21.1494C19.7106 67.6675 18.9912 68.0885 18.9912 68.9307C18.9912 69.2988 19.1139 69.5866 19.3594 69.7939C19.6048 70.0013 19.9201 70.105 20.3052 70.105ZM30.8867 67.6421C30.8867 68.6873 30.6476 69.5295 30.1694 70.1685C29.6912 70.8075 29.0438 71.127 28.2271 71.127C27.3934 71.127 26.7375 70.8625 26.2593 70.3335V73.6406H25.085V64.1318H26.1577L26.2148 64.8936C26.693 64.3011 27.3574 64.0049 28.208 64.0049C29.0332 64.0049 29.6849 64.3159 30.1631 64.938C30.6455 65.5601 30.8867 66.4255 30.8867 67.5342V67.6421ZM29.7124 67.5088C29.7124 66.7344 29.5474 66.1229 29.2173 65.6743C28.8872 65.2257 28.4344 65.0015 27.8589 65.0015C27.1479 65.0015 26.6147 65.3167 26.2593 65.9473V69.229C26.6105 69.8553 27.1479 70.1685 27.8716 70.1685C28.4344 70.1685 28.8809 69.9463 29.2109 69.502C29.5452 69.0534 29.7124 68.389 29.7124 67.5088ZM32.0737 67.5024C32.0737 66.8296 32.2049 66.2244 32.4673 65.687C32.7339 65.1496 33.1021 64.7349 33.5718 64.4429C34.0457 64.1509 34.5853 64.0049 35.1904 64.0049C36.1257 64.0049 36.881 64.3286 37.4565 64.9761C38.0363 65.6235 38.3262 66.4847 38.3262 67.5596V67.6421C38.3262 68.3107 38.1971 68.9116 37.939 69.4448C37.6851 69.9738 37.319 70.3864 36.8408 70.6826C36.3669 70.9788 35.821 71.127 35.2031 71.127C34.2721 71.127 33.5168 70.8032 32.937 70.1558C32.3615 69.5083 32.0737 68.6514 32.0737 67.585V67.5024ZM33.2544 67.6421C33.2544 68.4038 33.43 69.0153 33.7812 69.4766C34.1367 69.9378 34.6107 70.1685 35.2031 70.1685C35.7998 70.1685 36.2738 69.9357 36.625 69.4702C36.9762 69.0005 37.1519 68.3446 37.1519 67.5024C37.1519 66.7492 36.972 66.1398 36.6123 65.6743C36.2568 65.2046 35.7829 64.9697 35.1904 64.9697C34.6107 64.9697 34.1431 65.2004 33.7876 65.6616C33.4321 66.1229 33.2544 66.783 33.2544 67.6421ZM43.1187 65.1855C42.9409 65.1559 42.7484 65.1411 42.541 65.1411C41.7708 65.1411 41.2482 65.4691 40.9731 66.125V71H39.7988V64.1318H40.9414L40.9604 64.9253C41.3455 64.3117 41.8914 64.0049 42.5981 64.0049C42.8267 64.0049 43.0002 64.0345 43.1187 64.0938V65.1855ZM46.1147 62.4688V64.1318H47.397V65.0396H46.1147V69.2988C46.1147 69.5739 46.1719 69.7812 46.2861 69.9209C46.4004 70.0563 46.5951 70.124 46.8701 70.124C47.0055 70.124 47.1917 70.0986 47.4287 70.0479V71C47.1198 71.0846 46.8193 71.127 46.5273 71.127C46.0026 71.127 45.6069 70.9683 45.3403 70.6509C45.0737 70.3335 44.9404 69.8828 44.9404 69.2988V65.0396H43.6899V64.1318H44.9404V62.4688H46.1147Z" fill="#453F3F"/>
<path d="M0 5C0 2.23857 2.23858 0 5 0H50C52.7614 0 55 2.23858 55 5V50C55 52.7614 52.7614 55 50 55H5C2.23857 55 0 52.7614 0 50V5Z" fill="white"/>
<g filter="url(#filter0_d)">
<rect x="32.585" y="7.96655" width="25.8168" height="35.7113" transform="rotate(30.6067 32.585 7.96655)" fill="#82EAF0"/>
</g>
<path d="M30.5126 18.2348L30.4291 18.3662L30.1225 18.979L30.451 20.3991L30.0701 21.7246C29.9224 21.7255 29.8616 21.7018 29.8242 21.5812L29.7621 21.1983L29.8226 21.2082L29.862 20.9661L29.8014 20.9562L29.8407 20.7141L29.9013 20.724L29.9373 20.502L29.8768 20.4922L29.8218 20.1934L29.9358 20.129L29.7587 19.5619L29.6578 19.5455L29.5592 19.2603L29.7004 19.2832L29.7594 18.9201L29.6181 18.8971L29.6607 18.6349L29.8019 18.6578C29.8317 18.4498 29.8779 18.3895 29.9651 18.2908L29.8806 18.1736L30.0044 18.0487L30.1658 18.0749L30.3403 18.0204L30.5126 18.2348Z" fill="#222431"/>
<path d="M30.7493 19.4535C30.5388 19.0576 30.4978 18.8134 30.4087 18.3628C29.8678 18.9049 29.8207 19.3205 30.3194 20.3155C30.2433 20.9121 30.2223 21.275 30.0295 21.718L30.9505 21.7847L31.278 20.5333C31.1373 20.1746 31.1414 20.128 30.9389 19.8156L30.741 19.887L30.6325 19.6623L30.7493 19.4535Z" fill="#19435C"/>
<path d="M30.9395 19.8158L30.7498 19.4536L30.6063 19.6995L30.7753 19.9341L30.9395 19.8158Z" fill="white"/>
<path d="M31.2741 20.5535C31.4644 20.9704 31.5173 21.1003 31.5422 21.1976L33.0485 25.4388L32.4808 25.4915L31.929 25.3191C31.6468 23.8439 31.4828 23.0221 31.0001 21.7308C30.7884 20.9988 30.8833 20.7709 31.2741 20.5535Z" fill="#E8C0A5"/>
<path d="M32.9601 25.2171C32.0004 23.6982 31.7395 22.8103 31.522 21.1941L33.6359 24.4986L32.9601 25.2171Z" fill="#EFDFBE"/>
<path d="M32.9404 25.2138C32.6201 25.3603 32.4271 25.3766 31.9496 25.3221C32.1668 25.8354 32.3183 26.1099 32.8818 26.4674C33.1694 27.4087 33.307 27.8459 33.5357 28.5616C34.8207 28.6301 34.9711 28.1491 34.9501 26.8654C34.8134 27.3706 34.6706 27.4621 34.2503 27.4766C33.5615 26.5112 33.3188 26.0653 32.9404 25.2138Z" fill="#EFA26D"/>
<path d="M33.5723 24.5089L32.9401 25.2138C33.2668 25.9226 33.9309 27.3502 33.974 27.3904C34.0172 27.4305 34.5333 27.7297 34.7859 27.8743L34.953 26.8453C34.2571 26.0809 34.398 25.8353 33.5723 24.5089Z" fill="#F9BB80"/>
<path d="M31.4747 36.3338L31.3574 33.5303L29.7601 33.704L30.3406 36.3971C30.6039 37.1957 30.7395 37.6469 30.8711 38.4839L30.9529 38.6C31.0497 38.7651 31.1387 38.6763 31.3582 38.7487C31.4152 38.5405 31.487 38.4513 31.6605 38.3234C31.4687 37.5257 31.4829 37.19 31.4747 36.3338Z" fill="#E5C2A6"/>
<path d="M30.3456 36.4721L29.6248 33.6424L30.7563 33.4327C31.0555 34.5169 30.9595 36.007 30.892 36.1674C30.8246 36.3278 30.8874 36.4047 30.3456 36.4721Z" fill="#F1DEC0"/>
<path d="M31.369 33.615L30.6198 33.6383L30.1697 32.0743L31.6136 30.1966C32.367 30.6876 32.5834 31.1008 32.2876 32.2939C31.7692 32.357 31.4781 32.3693 30.9571 32.3264C31.2456 32.808 31.3274 33.0916 31.369 33.615Z" fill="#EEA36C"/>
<path d="M29.3167 32.2254C29.1014 30.8863 29.6288 30.4522 31.5763 30.1696C31.8581 30.8321 31.6834 31.195 30.2099 32.0806C30.3916 32.6085 30.9356 33.5683 30.7712 33.7248C30.6069 33.8813 29.649 33.7496 29.649 33.7496C29.4592 33.2079 29.3886 32.8723 29.3167 32.2254Z" fill="#FBBA80"/>
<path d="M30.8248 39.2623L30.623 39.2295L30.588 39.7001L30.7724 39.5851L30.8248 39.2623Z" fill="white"/>
<path d="M32.3681 39.4509C32.4393 39.2833 32.4517 39.1594 32.3731 39.0376L32.1446 39.0419L31.1329 39.7887L30.176 41.6006L30.1128 41.7352L30.3549 41.7746C30.4259 41.74 30.4495 41.765 30.4961 41.7975L30.6504 41.7397L30.6799 41.5581C30.8597 41.4854 30.9316 41.4068 31.0246 41.2207L31.186 41.2469L31.269 40.9912L31.2384 40.9241C31.3231 40.7423 31.3299 40.6353 31.3574 40.4464L31.4987 40.4694L31.5478 40.1667L31.4066 40.1438L31.4426 39.9219C31.4746 39.8378 31.5177 39.8132 31.6101 39.7834C31.6947 39.7864 31.7374 39.8022 31.8053 39.8565L31.9056 39.7486C31.8909 39.7037 31.8779 39.6787 31.8413 39.6346L32.0725 39.4858C32.2108 39.4589 32.268 39.4556 32.3681 39.4509Z" fill="#212735"/>
<path d="M30.6607 38.6143C30.7723 38.4818 30.7843 38.4583 30.8816 38.4017C31.0665 38.6216 31.2031 38.6586 31.3565 38.6652C31.4416 38.4339 31.4265 38.3986 31.6707 38.2606C31.9956 38.529 32.2305 38.6583 32.3696 39.0575C31.9021 39.2467 31.664 39.4235 31.2706 39.8316C31.1137 40.6744 31.1171 41.1983 30.1758 41.6003C30.173 41.4679 30.1906 41.3723 30.2446 41.1766C30.4682 40.5989 30.5078 40.2164 30.5945 39.6597L30.7755 39.5648L30.8247 39.2622L30.6229 39.2294C30.6177 39.082 30.6271 38.9467 30.6607 38.6143Z" fill="#1B435D"/>
<path d="M39.1204 24.0229L39.3477 19.6905C39.871 19.5068 40.1692 19.4085 40.312 18.8531L40.1707 18.8302L40.2232 18.5074L39.9102 18.3944L39.9129 18.2499C39.7889 18.2168 39.7179 18.2075 39.5901 18.1975L39.4494 18.2989C38.9652 18.2511 38.8239 18.2641 38.8179 18.362L38.7131 19.0076L38.9 19.5143L38.8509 19.8169L38.2761 24.6313L38.9435 25.1124L39.5953 24.2864L39.1204 24.0229Z" fill="#FBBA80"/>
<path d="M37.8812 24.6293C37.9951 22.6563 38.315 21.6489 38.8458 19.8368L38.3714 24.5432C38.5154 24.677 38.8147 24.9507 38.8605 24.9747C38.9063 24.9987 38.789 25.2875 38.7246 25.4289C38.2854 25.281 38.1165 25.0823 37.8812 24.6293Z" fill="#E6A472"/>
<path d="M39.2086 19.0053L38.7806 18.708L38.7249 19.051L38.8982 19.514L39.2086 19.0053Z" fill="#E6A472"/>
<path d="M41.8112 33.9654C41.821 33.9048 41.9555 31.9219 42.0949 31.071L43.4264 31.2872C43.1999 33.9293 42.4691 37.4988 42.5122 37.6823C42.5552 37.8658 43.1212 38.5709 43.2247 38.5228C43.3282 38.4747 43.4451 38.7156 43.3397 38.7071C43.29 38.7211 43.2031 38.7197 43.0911 38.7082L43.1417 38.7785L43.3576 38.9792C43.3933 39.0416 43.3818 39.0715 43.3347 39.1205C43.1579 39.161 42.9076 38.9182 42.7726 38.8842L43.1035 39.2693C43.1046 39.3721 43.0886 39.4096 43.0336 39.4443C42.6609 39.5017 42.4962 39.2888 42.2704 38.5335C42.1726 38.9073 42.1174 39.1116 42.0117 39.3612C41.8968 39.3749 41.8335 39.3753 41.749 39.1943C41.7801 38.8564 41.8597 38.5439 41.9793 38.0307C41.9144 38.0695 41.8643 38.0703 41.7508 38.035C41.6673 38.1778 41.6032 38.2431 41.4361 38.3152C41.1433 38.3444 40.8478 38.2403 40.8609 38.1596C40.874 38.0789 41.0856 37.9973 41.2868 37.9596C41.3804 37.7583 41.571 37.6123 41.6381 37.5818C41.7051 37.5513 41.7918 37.5238 41.9271 37.5873C42.0827 36.0674 41.8014 34.0259 41.8112 33.9654Z" fill="#F9BB82"/>
<path d="M43.3824 31.3002L42.1113 31.0938C42.0661 31.4108 41.9962 31.6734 42.0135 31.8234C42.7377 31.5932 42.9765 31.8025 43.2413 32.9339C43.373 31.8909 43.4804 31.1287 43.3824 31.3002Z" fill="#EFA371"/>
<path d="M32.3109 32.2768C31.9167 32.2921 31.672 32.3338 31.2862 32.3381C31.4088 32.64 31.48 32.7989 32.055 32.96C32.1708 32.7717 32.2651 32.5987 32.3109 32.2768Z" fill="#070922"/>
<path d="M32.4086 31.5473C32.3319 30.8989 32.1177 30.6201 31.5931 30.1932C32.41 30.0207 32.7744 30.0454 33.5274 29.886L34.1325 30.7505C33.6115 31.2862 33.251 31.4858 32.4086 31.5473Z" fill="#16344C"/>
<path d="M33.9816 30.7878C33.4357 31.2726 33.1043 31.4738 32.3951 31.5034C32.3339 32.0833 32.2754 32.4046 32.0551 32.9599C32.9 32.8678 33.7162 32.422 33.9888 32.5284C34.2615 32.6348 36.1523 32.5968 36.0419 32.5098L33.9816 30.7878Z" fill="#0F253A"/>
<path d="M36.0384 32.5301C34.4064 31.9494 33.8363 30.8052 32.9535 28.4467C33.4706 28.6596 33.6456 28.6048 33.9416 28.4829L37.5037 30.1382L37.5813 31.8281C37.1362 32.4149 36.8285 32.6285 36.0384 32.5301Z" fill="#113045"/>
<path d="M35.6885 31.5001C34.4238 31.0194 34.0503 30.3483 33.942 28.4831C34.818 28.0819 34.9222 27.6653 34.9534 26.8457C36.0936 28.2129 36.6632 29.0026 37.2941 30.5391C36.956 31.4246 36.6896 31.7854 35.6885 31.5001Z" fill="#1B435D"/>
<path d="M33.7169 28.5915C33.6058 28.4059 33.359 28.161 33.2661 27.6693C32.9984 27.9639 32.973 28.0929 32.9535 28.4468C33.3312 28.6335 33.5937 28.6752 33.7169 28.5915Z" fill="#050922"/>
<path d="M38.6584 25.5836L38.8874 25.7036C39.2068 24.8526 39.4809 24.5765 40.1152 24.3913L39.7079 24.2216C39.1197 24.4294 38.8818 24.7128 38.6584 25.5836Z" fill="#154156"/>
<path d="M41.3275 25.9756L41.0047 25.9232L40.342 26.561L42.985 26.9902L42.755 26.6216L40.9392 26.3267L41.3275 25.9756Z" fill="#154156"/>
<path d="M41.6524 30.9843L41.6629 30.6685C42.4888 30.8682 42.9357 30.9717 43.687 30.9558L43.6504 31.3088C42.9082 31.3909 42.4741 31.3383 41.6524 30.9843Z" fill="#154156"/>
<path d="M41.9754 29.0004L42.0939 30.8212C41.9262 30.7816 41.8313 30.7532 41.6599 30.6886C41.6527 30.2071 41.6734 29.9627 41.7223 29.5391C39.8885 29.4935 39.0055 30.4433 37.5309 32.5237C37.5676 31.1908 37.4388 30.3031 36.0514 28.2455L36.5598 27.6654L41.9754 29.0004Z" fill="black"/>
<path d="M36.5594 27.6653C37.2957 26.843 37.8097 26.4283 38.897 25.7671C39.0958 24.7969 39.5633 24.4638 40.1112 24.4112C40.3996 24.4771 40.7022 24.9528 40.7556 25.0335C40.7791 26.0215 40.8333 25.7146 41.2456 25.7136L40.3888 26.5271L42.9511 26.9431C43.3104 27.4643 43.4901 27.8055 43.7441 28.5629C43.8013 29.5052 43.7842 30.0286 43.6869 30.9557C43.0407 31.0711 42.696 31.0123 42.0935 30.8212C41.8795 30.3634 41.8811 29.9319 41.9685 29.0407C38.2618 29.0006 36.6377 28.8366 36.5594 27.6653Z" fill="#FF7D05"/>
<path d="M37.4036 32.6688C37.3447 32.6663 37.0379 32.6518 36.8785 32.4593C37.0749 32.3623 37.1759 32.3198 37.5379 31.8416L37.5574 32.4867C37.5686 32.5933 37.4625 32.6713 37.4036 32.6688Z" fill="black"/>
<circle cx="33.706" cy="18.5879" r="2.04398" transform="rotate(9.2239 33.706 18.5879)" fill="#E1DAC5"/>
<ellipse cx="33.6171" cy="18.1176" rx="1.88046" ry="1.55342" transform="rotate(-9.21102 33.6171 18.1176)" fill="#F1EBDF"/>
<path d="M31.6972 18.5929C31.6768 18.2387 31.6442 18.1136 31.8719 17.7723L32.0916 18.0772L31.6972 18.5929Z" fill="#163F5F"/>
<path d="M33.6036 16.5419C33.323 16.5624 33.1725 16.5973 32.9154 16.6993L33.2218 16.8526L33.6036 16.5419Z" fill="#163F5F"/>
<path d="M35.0916 18.0882L34.6228 17.66L34.7145 17.0951L35.1415 17.1438C35.5012 17.5435 35.6044 17.7279 35.6119 17.9449L35.0916 18.0882Z" fill="#163F5F"/>
<path d="M34.1506 19.6747L34.2555 19.0291L34.9371 18.912L35.0842 19.5364L34.7024 19.8471L34.1506 19.6747Z" fill="#163F5F"/>
<path d="M32.4337 19.7897L32.8155 19.4789L33.3618 19.9404L33.0585 20.5331C32.77 20.4121 32.6219 20.3531 32.4118 20.1796L32.4337 19.7897Z" fill="#163F5F"/>
<path d="M32.6286 18.0818L33.1703 17.4243L33.8033 17.7341L33.705 18.3394L32.9868 18.5541L32.6286 18.0818Z" fill="#163F5F"/>
<path d="M42.7551 26.6217L43.0094 25.5655L43.2767 25.1947L43.9295 24.6174C43.6503 24.1961 44.5012 23.5206 44.3096 22.8911C44.1241 22.1551 43.1014 22.0266 43.0951 21.3403C42.7196 21.3931 42.5062 21.4832 42.3308 21.583C41.9047 21.9475 41.7239 22.3558 41.4428 22.9711C41.1355 23.4446 40.6869 23.8565 40.5804 24.0735C40.4739 24.2905 40.5903 25.825 41.116 26.0035L40.7615 26.4014L42.7551 26.6217Z" fill="#F9BB80"/>
<path d="M41.9551 24.9179C41.5525 24.7566 41.3882 24.6439 41.1667 24.4172C41.0187 24.4795 40.9088 24.6896 40.8841 25.1375C41.394 25.1143 41.6267 25.065 41.9551 24.9179Z" fill="white"/>
<path d="M41.2207 24.4673C41.1136 24.3752 41.0475 24.312 40.9879 24.2432C40.8107 24.6699 40.7435 24.9111 40.8841 25.1374C40.947 24.6684 41.1081 24.518 41.2207 24.4673Z" fill="#B7593F"/>
<path d="M42.9502 25.8044C42.5759 26.0684 42.1345 26.0486 41.0962 26.0003C41.7794 26.1076 42.1588 26.1895 42.8744 26.1441C42.9164 26.0464 42.9179 25.9742 42.9502 25.8044Z" fill="#E9A46D"/>
<path d="M41.3117 23.7782C41.8045 23.655 41.9119 23.552 42.103 23.3683C41.5397 23.6247 41.3959 23.5799 41.207 23.6576C41.1473 23.9926 41.1595 24.1507 41.4681 24.2177C41.3582 24.122 41.2935 24.0733 41.3117 23.7782Z" fill="#CC6D59"/>
<path d="M44.0368 25.2244C44.1347 25.5057 43.8504 25.7435 43.6056 25.8487C43.3607 25.9539 42.9379 25.9224 42.84 25.641C42.742 25.3597 42.9305 25.0383 43.261 24.9233C43.5915 24.8082 43.9388 24.943 44.0368 25.2244Z" fill="#FBBA80"/>
<path d="M43.8337 23.3554L43.6702 23.0538L44.0653 23.2856L43.7485 22.8999L44.0786 23.1112L43.7852 22.7686C43.7446 22.5445 43.6805 22.4513 43.4984 22.3387C43.3972 22.2552 43.36 22.1878 43.365 21.9929L43.305 22.0812C43.2635 22.0594 43.1468 22.1032 43.1017 21.8468C43.0277 21.7741 42.5716 21.7968 42.4751 21.5037C42.9922 20.5279 43.8072 20.2595 44.5682 20.5328C44.4938 20.784 44.4449 20.9178 44.2616 21.0612C44.6626 20.8782 44.8386 20.889 45.0551 21.1329L44.8209 21.1484L45.1251 21.2622L45.0185 21.2643C45.1451 21.364 45.1918 21.4097 45.2419 21.4777C45.006 21.3298 44.9043 21.3338 44.7476 21.411L44.993 21.5219L44.9101 21.4623L45.1402 21.5885L44.993 21.5219L45.1752 21.6531L44.9919 21.6131C45.283 21.7186 45.4009 21.7907 45.4987 21.9517C45.2821 21.9094 45.2444 21.9368 45.202 22.0009C45.5144 22.0286 45.6162 22.0831 45.7455 22.2081C45.5195 22.1536 45.4415 22.1735 45.3304 22.2379C45.5654 22.3344 45.6915 22.3718 45.9039 22.401C45.7857 22.5611 45.7053 22.5931 45.5238 22.4954C45.6162 22.6187 45.7308 22.6977 45.6689 22.8627C45.7876 22.7023 45.8438 22.6563 45.9439 22.5744L45.7165 23.1993L45.8639 22.9243C45.9499 23.1357 45.9612 23.2669 45.9137 23.4122L45.9374 23.3583C46.0114 23.64 45.9888 23.7973 45.8958 24.0775L45.9975 23.9667C45.9752 24.3785 45.916 24.5831 45.7201 24.8973L45.8893 24.8614C45.7836 25.0706 45.6984 25.1519 45.4893 25.2175C45.3865 25.2881 45.4326 25.3874 45.5161 25.5653C45.4452 25.558 45.3966 25.503 45.3043 25.3734C45.3189 25.5088 45.352 25.5881 45.4169 25.7305C45.2972 25.6695 45.229 25.6267 45.0935 25.4319C44.6798 25.7293 44.4196 25.8583 43.8008 25.8815C43.1945 25.9657 43.2682 25.971 42.8775 26.1551L42.986 25.8344C44.3279 26.222 44.2548 24.3814 42.923 24.9079L42.9259 24.6966C43.6209 24.4765 43.8476 24.2093 43.8337 23.3554Z" fill="black"/>
<path d="M44.4811 25.5959C44.8864 25.3535 45.036 25.2003 45.1211 24.8869C45.1976 24.9846 45.2302 25.0456 45.2103 25.2008L45.3353 25.1331C45.179 25.3077 45.075 25.4274 44.9795 25.521C44.8921 25.5945 44.847 25.597 44.7687 25.5795C44.8688 25.5136 44.9123 25.4671 44.9837 25.3794C44.7814 25.5206 44.6721 25.5611 44.4811 25.5959Z" fill="#696969"/>
<g filter="url(#filter1_d)">
<rect x="4.86328" y="5" width="25.8168" height="35.7113" fill="white"/>
</g>
<path opacity="0.8" d="M11.9146 6.59229H29.5428V7.72959H11.9146V6.59229Z" fill="#C4C4C4"/>
<path opacity="0.8" d="M7.59277 11.7102H25.221V12.8475H7.59277V11.7102Z" fill="#C4C4C4"/>
<path d="M20.3306 14.3259H29.5427V15.4632H20.3306V14.3259Z" fill="#C4C4C4"/>
<path d="M20.3306 14.3259H29.5427V15.4632H20.3306V14.3259Z" fill="#C4C4C4"/>
<path opacity="0.8" d="M20.3306 14.3259H29.5427V15.4632H20.3306V14.3259Z" fill="#C4C4C4"/>
<path d="M18.397 16.0317H29.5426V17.169H18.397V16.0317Z" fill="#C4C4C4"/>
<path opacity="0.8" d="M18.397 17.738H29.5426V18.8753H18.397V17.738Z" fill="#C4C4C4"/>
<path opacity="0.8" d="M18.397 19.4436H29.5426V20.5809H18.397V19.4436Z" fill="#C4C4C4"/>
<path opacity="0.8" d="M18.397 21.1497H29.5426V22.287H18.397V21.1497Z" fill="#C4C4C4"/>
<path opacity="0.8" d="M18.397 22.8557H27.2679V23.993H18.397V22.8557Z" fill="#C4C4C4"/>
<path opacity="0.8" d="M18.397 16.0317H29.5426V17.169H18.397V16.0317Z" fill="#C4C4C4"/>
<rect opacity="0.8" x="7.59277" y="8.2981" width="21.95" height="1.1373" fill="#C4C4C4"/>
<rect opacity="0.8" x="7.59277" y="10.0039" width="21.95" height="1.1373" fill="#C4C4C4"/>
<path opacity="0.8" d="M7.59277 38.4368H25.221V39.5741H7.59277V38.4368Z" fill="#C4C4C4"/>
<rect opacity="0.8" x="7.59277" y="36.7307" width="21.95" height="1.1373" fill="#C4C4C4"/>
<circle cx="12.1433" cy="19.33" r="5.11787" fill="#1774BC"/>
<path d="M12.1423 19.33C12.1423 22.1565 14.9688 24.4479 12.1423 24.4479C9.31576 24.4479 7.02441 22.1565 7.02441 19.33C7.02434 15.8926 10.0035 14.5177 10.2326 14.5941C10.2326 14.5941 11.2256 16.962 12.1423 19.33Z" fill="#FFC805"/>
<path d="M16.1907 16.1982C18.4823 19.0245 17.041 24.3702 12.1423 24.4479C9.31576 24.4479 7.02441 22.1566 7.02441 19.3301C7.02441 19.3301 9.31576 19.3301 12.1423 19.3301L16.1907 16.1982Z" fill="#DB3A19"/>
<path d="M12.1423 24.4479C9.31576 24.4479 7.02441 22.1566 7.02441 19.3301L12.1423 19.3301C12.1423 19.3301 12.1423 21.6214 12.1423 24.4479Z" fill="#55DD15"/>
<rect x="8.38916" y="30.9307" width="1.81969" height="5.00414" fill="#FFC805"/>
<rect x="10.7773" y="27.6321" width="1.81969" height="8.30232" fill="#55DD15"/>
<rect x="13.2798" y="29.2246" width="1.81969" height="6.71009" fill="#1774BC"/>
<rect x="15.7812" y="26.3813" width="1.81969" height="9.78081" fill="#55DD15"/>
<rect x="18.397" y="30.9307" width="1.81969" height="5.2316" fill="#FFC805"/>
<rect x="21.127" y="26.3813" width="1.81969" height="9.78081" fill="#55DD15"/>
<rect x="23.9702" y="26.3813" width="1.81969" height="9.78081" fill="#55DD15"/>
<rect x="26.5859" y="33.5464" width="1.81969" height="2.6158" fill="#DB3A19"/>
<defs>
<filter id="filter0_d" x="12.4028" y="7.96655" width="44.4022" height="47.8805" filterUnits="userSpaceOnUse" color-interpolation-filters="sRGB">
<feFlood flood-opacity="0" result="BackgroundImageFix"/>
<feColorMatrix in="SourceAlpha" type="matrix" values="0 0 0 0 0 0 0 0 0 0 0 0 0 0 0 0 0 0 127 0"/>
<feOffset dy="2"/>
<feGaussianBlur stdDeviation="1"/>
<feColorMatrix type="matrix" values="0 0 0 0 0 0 0 0 0 0 0 0 0 0 0 0 0 0 0.25 0"/>
<feBlend mode="normal" in2="BackgroundImageFix" result="effect1_dropShadow"/>
<feBlend mode="normal" in="SourceGraphic" in2="effect1_dropShadow" result="shape"/>
</filter>
<filter id="filter1_d" x="2.86328" y="5" width="29.8168" height="39.7113" filterUnits="userSpaceOnUse" color-interpolation-filters="sRGB">
<feFlood flood-opacity="0" result="BackgroundImageFix"/>
<feColorMatrix in="SourceAlpha" type="matrix" values="0 0 0 0 0 0 0 0 0 0 0 0 0 0 0 0 0 0 127 0"/>
<feOffset dy="2"/>
<feGaussianBlur stdDeviation="1"/>
<feColorMatrix type="matrix" values="0 0 0 0 0 0 0 0 0 0 0 0 0 0 0 0 0 0 0.25 0"/>
<feBlend mode="normal" in2="BackgroundImageFix" result="effect1_dropShadow"/>
<feBlend mode="normal" in="SourceGraphic" in2="effect1_dropShadow" result="shape"/>
</filter>
</defs>
</svg>
