<svg width="55" height="74" viewBox="0 0 55 74" fill="none" xmlns="http://www.w3.org/2000/svg">
<rect width="55" height="55" rx="5" fill="white"/>
<path d="M15.0728 71V61.7578H17.6816C18.4857 61.7578 19.1966 61.9355 19.8145 62.291C20.4323 62.6465 20.9084 63.1522 21.2427 63.8081C21.5812 64.464 21.7526 65.2173 21.7568 66.0679V66.6582C21.7568 67.5299 21.5876 68.2938 21.249 68.9497C20.9147 69.6056 20.4344 70.1092 19.8081 70.4604C19.186 70.8117 18.4603 70.9915 17.6309 71H15.0728ZM16.2915 62.7607V70.0034H17.5737C18.5132 70.0034 19.2432 69.7114 19.7637 69.1274C20.2884 68.5435 20.5508 67.7119 20.5508 66.6328V66.0933C20.5508 65.0438 20.3032 64.2292 19.8081 63.6494C19.3172 63.0654 18.619 62.7692 17.7134 62.7607H16.2915ZM30.707 71H29.4819L24.8291 63.8779V71H23.604V61.7578H24.8291L29.4946 68.9116V61.7578H30.707V71ZM34.0903 67.3818V71H32.8716V61.7578H36.2803C37.2917 61.7578 38.083 62.016 38.6543 62.5322C39.2298 63.0485 39.5176 63.7319 39.5176 64.5825C39.5176 65.4797 39.2362 66.1715 38.6733 66.6582C38.1147 67.1406 37.3128 67.3818 36.2676 67.3818H34.0903ZM34.0903 66.3853H36.2803C36.932 66.3853 37.4313 66.2329 37.7783 65.9282C38.1253 65.6193 38.2988 65.175 38.2988 64.5952C38.2988 64.0451 38.1253 63.605 37.7783 63.2749C37.4313 62.9448 36.9552 62.7734 36.3501 62.7607H34.0903V66.3853Z" fill="#453F3F"/>
<g filter="url(#filter0_d)">
<path d="M47.4997 25.9448C47.4997 37.247 38.3226 46.4106 27.0003 46.4106C15.6781 46.4106 6.50098 37.247 6.50098 25.9448C6.50098 14.6426 15.6781 5.479 27.0003 5.479C38.3226 5.479 47.4997 14.6426 47.4997 25.9448Z" fill="white" stroke="#494949"/>
<path d="M20.1447 27.0198L29.6376 28.5137C30.3045 32.0943 30.5752 34.0962 30.7961 37.6543C27.8755 39.452 26.0893 40.2753 22.5743 41.3329C19.5931 38.8987 18.1975 37.3531 15.9453 34.4414C17.3608 30.9853 18.3089 29.4313 20.1447 27.0198Z" fill="#163F5F"/>
<path d="M33.0806 13.8571C35.266 11.9983 36.455 11.2879 38.514 10.5564C41.3964 13.1872 42.8198 14.6883 44.6386 17.4638L43.1758 23.7272L35.8455 21.7307L33.0806 13.8571Z" fill="#163F5F"/>
<path d="M13.0542 10.7157C16.0334 9.09162 17.613 8.44814 20.3555 7.26367C21.6099 8.44126 22.3166 9.2138 23.6059 11.5507L17.5535 18.1497L10.9727 17.7483C11.1747 15.0212 11.6249 13.3809 13.0542 10.7157Z" fill="#163F5F"/>
<path d="M44.5666 31.7913L46.5875 32.9906C44.5383 37.8896 42.7645 40.1289 38.5361 43.2821L37.3813 42.9742L38.5361 38.9872C41.6176 35.9235 42.8753 34.3697 44.5666 31.7913Z" fill="#163F5F"/>
<path d="M6.01687 24.668H7.0734C7.51504 27.8586 7.70395 29.6477 9.83029 32.8295L9.56615 37.4356C7.12593 33.9113 5.83529 30.276 6.01687 24.668Z" fill="#163F5F"/>
<path d="M22.6321 45.0962C22.6321 45.0962 24.0403 46.321 25.0843 46.6417C22.8538 46.499 21.611 46.2501 19.5068 45.4182L22.6321 45.0962Z" fill="#163F5F"/>
<path d="M17.6021 17.9578H17.4409C17.4409 22.0045 18.1664 24.2778 20.1817 27.1798L20.4075 27.0992C18.362 24.168 17.8758 22.1084 17.6021 17.9578Z" fill="#494949"/>
<path d="M23.4062 11.3635C27.6312 11.6028 29.9326 12.0344 33.241 13.7819L33.1765 13.927C29.9009 12.2723 27.7639 11.8678 23.4062 11.6054V11.3635Z" fill="#494949"/>
<path d="M35.9007 21.5691L36.0781 21.7142C33.8861 24.7514 32.4296 26.2859 29.4679 28.7758L29.3228 28.5985C32.3263 26.0553 33.7401 24.5475 35.9007 21.5691Z" fill="#494949"/>
<path d="M42.9946 23.3586H43.172C44.3178 26.4025 44.7272 28.3448 44.7197 32.355H44.494C44.4852 28.6944 44.2352 26.724 42.9946 23.3586Z" fill="#494949"/>
<path d="M30.4839 37.4822C33.3878 38.72 35.2268 39.0456 38.8837 39.0138V39.2718C35.1786 39.3179 33.3263 39.0045 30.4839 37.7563V37.4822Z" fill="#494949"/>
<path d="M22.455 41.2385H22.6163C22.5429 42.7769 22.5471 43.6653 22.6969 45.1402L22.5357 45.0918C22.3611 43.6483 22.3227 42.8137 22.455 41.2385Z" fill="#494949"/>
<path d="M11.1851 17.2161V17.5202C9.04597 19.8458 8.11057 21.4025 7.04163 25.0032L6.81592 24.8609C7.6247 21.3243 9.50837 19.0473 11.1851 17.2161Z" fill="#494949"/>
<path d="M9.70215 33.0644C11.4525 34.4715 12.8622 35.0313 16.1511 34.6283V34.3703C13.0075 34.7336 11.6746 34.2958 9.70215 32.7742V33.0644Z" fill="#494949"/>
<path d="M20.2944 7.26837C22.3846 5.71845 24.9517 5.14665 27.9526 5.02734L28.0816 5.1402C25.12 5.25416 22.5342 5.9557 20.4395 7.39735L20.2944 7.26837Z" fill="#494949"/>
<path d="M44.5752 17.5868C45.4124 17.7411 45.7369 17.9749 46.5099 18.667V18.5058C45.8696 17.8818 45.568 17.6171 44.5752 17.4094V17.5868Z" fill="#494949"/>
<path d="M34.1113 6.28491L34.5305 6.41389C36.1303 7.93976 37.5498 9.17374 38.6579 10.7186H38.3838C37.2422 9.13082 35.7014 7.76745 34.1113 6.28491Z" fill="#494949"/>
</g>
<defs>
<filter id="filter0_d" x="6" y="4.979" width="45.9997" height="45.9315" filterUnits="userSpaceOnUse" color-interpolation-filters="sRGB">
<feFlood flood-opacity="0" result="BackgroundImageFix"/>
<feColorMatrix in="SourceAlpha" type="matrix" values="0 0 0 0 0 0 0 0 0 0 0 0 0 0 0 0 0 0 127 0"/>
<feOffset dx="2" dy="2"/>
<feGaussianBlur stdDeviation="1"/>
<feColorMatrix type="matrix" values="0 0 0 0 0 0 0 0 0 0 0 0 0 0 0 0 0 0 0.25 0"/>
<feBlend mode="normal" in2="BackgroundImageFix" result="effect1_dropShadow"/>
<feBlend mode="normal" in="SourceGraphic" in2="effect1_dropShadow" result="shape"/>
</filter>
</defs>
</svg>
