<svg width="420" height="414" viewBox="0 0 420 414" fill="none" xmlns="http://www.w3.org/2000/svg">
<path d="M334.998 390.5C308.067 418.366 87.1843 424.639 82.9984 390.5C95.5888 295.651 104.497 239.354 94.0002 199C91.5535 189.594 88.0002 172.5 81.4989 173.5C80.1558 171.729 68.6878 186.769 65.0002 193C61.3125 199.231 4.49841 177.5 0.998406 167C-1.30038 160.104 34 69.5 59.5 48C85 26.5 120.615 14.9145 163 0.5C187.948 46.164 233.356 38.7529 257 0.5C300.366 17.6047 311 14 355 44.5C381.612 62.9467 417.683 154.245 416 164.5C414.317 174.755 358 203.5 351.998 193C345.997 182.5 348.454 175.631 344.5 172C339.5 167.409 334 176.5 334 176.5C309.331 218.032 323.139 284.985 334.998 390.5Z" fill="#FE9241"/>
<path d="M256.5 0.5C227.456 42.914 193.593 45.6959 163 0.5C156.995 1.55645 153.606 2.5617 147.5 5.5C196.313 71.2971 230.162 61.2348 272 5.5C267.383 3.166 264.3 1.98597 256.5 0.5Z" fill="black"/>
<path d="M335 175.5C341.305 110.848 339.459 73.5289 316 22.5C373 37 406.748 109.048 420 166.5C395.33 186.909 380.646 193.461 353 195.5C348.866 184.617 340.5 172 335 175.5Z" fill="black"/>
<path d="M66.5012 193C64.9709 199.662 4.50117 178 0.501172 167.5C-1.80634 161.443 21.0003 103 36.5003 76C52.0002 49 84.2683 24.4619 105.001 21.5C84.4813 78.273 77.9871 113.604 82.5012 173.5C81.5568 171.881 68.0315 186.338 66.5012 193Z" fill="black"/>
<path d="M194.427 141.404C194.427 140.574 194.134 139.939 193.548 139.5C192.962 139.051 191.907 138.582 190.384 138.094C188.86 137.596 187.654 137.107 186.766 136.629C184.344 135.32 183.133 133.558 183.133 131.341C183.133 130.188 183.455 129.163 184.1 128.265C184.754 127.356 185.687 126.648 186.897 126.141C188.118 125.633 189.485 125.379 190.999 125.379C192.522 125.379 193.88 125.657 195.071 126.214C196.263 126.761 197.186 127.537 197.84 128.543C198.504 129.549 198.836 130.691 198.836 131.971H194.441C194.441 130.994 194.134 130.237 193.519 129.7C192.903 129.153 192.039 128.88 190.926 128.88C189.852 128.88 189.017 129.109 188.421 129.568C187.825 130.018 187.527 130.613 187.527 131.355C187.527 132.049 187.874 132.63 188.567 133.099C189.271 133.567 190.301 134.007 191.658 134.417C194.158 135.169 195.979 136.102 197.122 137.215C198.265 138.328 198.836 139.715 198.836 141.375C198.836 143.221 198.138 144.671 196.741 145.726C195.345 146.771 193.465 147.293 191.102 147.293C189.461 147.293 187.967 146.995 186.619 146.399C185.271 145.794 184.241 144.969 183.528 143.924C182.825 142.879 182.474 141.668 182.474 140.291H186.883C186.883 142.645 188.289 143.821 191.102 143.821C192.146 143.821 192.962 143.611 193.548 143.191C194.134 142.762 194.427 142.166 194.427 141.404ZM212.884 141.404C212.884 140.574 212.591 139.939 212.005 139.5C211.419 139.051 210.364 138.582 208.841 138.094C207.317 137.596 206.111 137.107 205.223 136.629C202.801 135.32 201.59 133.558 201.59 131.341C201.59 130.188 201.912 129.163 202.557 128.265C203.211 127.356 204.144 126.648 205.354 126.141C206.575 125.633 207.942 125.379 209.456 125.379C210.979 125.379 212.337 125.657 213.528 126.214C214.72 126.761 215.643 127.537 216.297 128.543C216.961 129.549 217.293 130.691 217.293 131.971H212.898C212.898 130.994 212.591 130.237 211.976 129.7C211.36 129.153 210.496 128.88 209.383 128.88C208.309 128.88 207.474 129.109 206.878 129.568C206.282 130.018 205.984 130.613 205.984 131.355C205.984 132.049 206.331 132.63 207.024 133.099C207.728 133.567 208.758 134.007 210.115 134.417C212.615 135.169 214.437 136.102 215.579 137.215C216.722 138.328 217.293 139.715 217.293 141.375C217.293 143.221 216.595 144.671 215.198 145.726C213.802 146.771 211.922 147.293 209.559 147.293C207.918 147.293 206.424 146.995 205.076 146.399C203.729 145.794 202.698 144.969 201.985 143.924C201.282 142.879 200.931 141.668 200.931 140.291H205.34C205.34 142.645 206.746 143.821 209.559 143.821C210.604 143.821 211.419 143.611 212.005 143.191C212.591 142.762 212.884 142.166 212.884 141.404ZM220.281 147V125.672H227.752C230.34 125.672 232.303 126.17 233.641 127.166C234.979 128.152 235.647 129.603 235.647 131.517C235.647 132.562 235.379 133.484 234.842 134.285C234.305 135.076 233.558 135.657 232.601 136.028C233.694 136.302 234.554 136.854 235.179 137.684C235.813 138.514 236.131 139.529 236.131 140.73C236.131 142.781 235.477 144.334 234.168 145.389C232.859 146.443 230.994 146.98 228.572 147H220.281ZM224.676 137.713V143.47H228.44C229.476 143.47 230.281 143.226 230.857 142.737C231.443 142.239 231.736 141.556 231.736 140.687C231.736 138.733 230.726 137.742 228.704 137.713H224.676ZM224.676 134.607H227.928C230.145 134.568 231.253 133.685 231.253 131.956C231.253 130.989 230.97 130.296 230.403 129.876C229.847 129.446 228.963 129.231 227.752 129.231H224.676V134.607ZM118.108 174.485V182H113.714V160.672H122.034C123.636 160.672 125.042 160.965 126.253 161.551C127.474 162.137 128.411 162.972 129.065 164.056C129.72 165.13 130.047 166.355 130.047 167.732C130.047 169.822 129.329 171.473 127.894 172.684C126.468 173.885 124.49 174.485 121.961 174.485H118.108ZM118.108 170.926H122.034C123.196 170.926 124.08 170.652 124.686 170.105C125.301 169.559 125.608 168.777 125.608 167.762C125.608 166.717 125.301 165.872 124.686 165.228C124.07 164.583 123.221 164.251 122.137 164.231H118.108V170.926ZM149.222 160.672V174.72C149.222 177.054 148.489 178.899 147.024 180.257C145.569 181.614 143.577 182.293 141.048 182.293C138.558 182.293 136.58 181.634 135.115 180.315C133.65 178.997 132.903 177.186 132.874 174.881V160.672H137.269V174.749C137.269 176.146 137.601 177.166 138.265 177.811C138.938 178.445 139.866 178.763 141.048 178.763C143.519 178.763 144.773 177.464 144.812 174.866V160.672H149.222ZM168.88 164.231H162.347V182H157.952V164.231H151.507V160.672H168.88V164.231ZM179.295 174.192H175.794V182H171.399V160.672H179.324C181.844 160.672 183.787 161.233 185.154 162.356C186.521 163.479 187.205 165.066 187.205 167.117C187.205 168.572 186.888 169.788 186.253 170.765C185.628 171.731 184.676 172.503 183.396 173.079L188.011 181.795V182H183.294L179.295 174.192ZM175.794 170.633H179.339C180.442 170.633 181.297 170.354 181.902 169.798C182.508 169.231 182.811 168.455 182.811 167.469C182.811 166.463 182.522 165.672 181.946 165.096C181.38 164.52 180.506 164.231 179.324 164.231H175.794V170.633ZM202.601 177.605H194.896L193.431 182H188.758L196.697 160.672H200.77L208.753 182H204.08L202.601 177.605ZM196.082 174.046H201.414L198.733 166.062L196.082 174.046ZM218.216 182V160.672H224.778C226.653 160.672 228.328 161.097 229.803 161.946C231.287 162.786 232.444 163.987 233.274 165.55C234.104 167.103 234.52 168.87 234.52 170.853V171.834C234.52 173.816 234.109 175.579 233.289 177.122C232.479 178.665 231.331 179.861 229.847 180.711C228.362 181.561 226.688 181.99 224.822 182H218.216ZM222.61 164.231V178.47H224.734C226.453 178.47 227.767 177.908 228.675 176.785C229.583 175.662 230.047 174.056 230.066 171.966V170.838C230.066 168.67 229.617 167.029 228.719 165.916C227.82 164.793 226.507 164.231 224.778 164.231H222.61ZM250.56 172.757H242.122V178.47H252.024V182H237.728V160.672H251.995V164.231H242.122V169.314H250.56V172.757ZM254.603 182V160.672H262.073C264.661 160.672 266.624 161.17 267.962 162.166C269.3 163.152 269.969 164.603 269.969 166.517C269.969 167.562 269.7 168.484 269.163 169.285C268.626 170.076 267.879 170.657 266.922 171.028C268.016 171.302 268.875 171.854 269.5 172.684C270.135 173.514 270.452 174.529 270.452 175.73C270.452 177.781 269.798 179.334 268.489 180.389C267.181 181.443 265.315 181.98 262.894 182H254.603ZM258.997 172.713V178.47H262.762C263.797 178.47 264.603 178.226 265.179 177.737C265.765 177.239 266.058 176.556 266.058 175.687C266.058 173.733 265.047 172.742 263.025 172.713H258.997ZM258.997 169.607H262.249C264.466 169.568 265.574 168.685 265.574 166.956C265.574 165.989 265.291 165.296 264.725 164.876C264.168 164.446 263.284 164.231 262.073 164.231H258.997V169.607ZM286.595 172.757H278.157V178.47H288.06V182H273.763V160.672H288.03V164.231H278.157V169.314H286.595V172.757ZM301.697 176.404C301.697 175.574 301.404 174.939 300.818 174.5C300.232 174.051 299.178 173.582 297.654 173.094C296.131 172.596 294.925 172.107 294.036 171.629C291.614 170.32 290.403 168.558 290.403 166.341C290.403 165.188 290.726 164.163 291.37 163.265C292.024 162.356 292.957 161.648 294.168 161.141C295.389 160.633 296.756 160.379 298.27 160.379C299.793 160.379 301.15 160.657 302.342 161.214C303.533 161.761 304.456 162.537 305.11 163.543C305.774 164.549 306.106 165.691 306.106 166.971H301.712C301.712 165.994 301.404 165.237 300.789 164.7C300.174 164.153 299.31 163.88 298.196 163.88C297.122 163.88 296.287 164.109 295.691 164.568C295.096 165.018 294.798 165.613 294.798 166.355C294.798 167.049 295.145 167.63 295.838 168.099C296.541 168.567 297.571 169.007 298.929 169.417C301.429 170.169 303.25 171.102 304.393 172.215C305.535 173.328 306.106 174.715 306.106 176.375C306.106 178.221 305.408 179.671 304.012 180.726C302.615 181.771 300.735 182.293 298.372 182.293C296.731 182.293 295.237 181.995 293.89 181.399C292.542 180.794 291.512 179.969 290.799 178.924C290.096 177.879 289.744 176.668 289.744 175.291H294.153C294.153 177.645 295.56 178.821 298.372 178.821C299.417 178.821 300.232 178.611 300.818 178.191C301.404 177.762 301.697 177.166 301.697 176.404Z" fill="black" fill-opacity="0.7"/>
</svg>
