<svg width="58" height="89" viewBox="0 0 58 89" fill="none" xmlns="http://www.w3.org/2000/svg">
<path d="M17.041 62.7607H14.0703V71H12.8579V62.7607H9.89355V61.7578H17.041V62.7607ZM21.7446 71C21.6769 70.8646 21.6219 70.6234 21.5796 70.2764C21.0337 70.8434 20.382 71.127 19.6245 71.127C18.9474 71.127 18.391 70.9365 17.9551 70.5557C17.5234 70.1706 17.3076 69.6839 17.3076 69.0957C17.3076 68.3805 17.5785 67.8262 18.1201 67.4326C18.666 67.0348 19.432 66.8359 20.418 66.8359H21.5605V66.2964C21.5605 65.8859 21.4378 65.5601 21.1924 65.3188C20.9469 65.0734 20.5851 64.9507 20.1069 64.9507C19.688 64.9507 19.3368 65.0565 19.0532 65.2681C18.7697 65.4797 18.6279 65.7357 18.6279 66.0361H17.4473C17.4473 65.6934 17.5679 65.3633 17.8091 65.0459C18.0545 64.7243 18.3846 64.4704 18.7993 64.2842C19.2183 64.098 19.6774 64.0049 20.1768 64.0049C20.9681 64.0049 21.5881 64.2038 22.0366 64.6016C22.4852 64.9951 22.7179 65.5389 22.7349 66.2329V69.394C22.7349 70.0246 22.8153 70.526 22.9761 70.8984V71H21.7446ZM19.7959 70.105C20.1641 70.105 20.5132 70.0098 20.8433 69.8193C21.1733 69.6289 21.4124 69.3813 21.5605 69.0767V67.6675H20.6401C19.2013 67.6675 18.4819 68.0885 18.4819 68.9307C18.4819 69.2988 18.6047 69.5866 18.8501 69.7939C19.0955 70.0013 19.4108 70.105 19.7959 70.105ZM25.75 64.9634C26.2705 64.3244 26.9476 64.0049 27.7812 64.0049C29.2327 64.0049 29.9648 64.8237 29.9775 66.4614V71H28.8032V66.4551C28.799 65.96 28.6847 65.5939 28.4604 65.3569C28.2404 65.12 27.8955 65.0015 27.4258 65.0015C27.0449 65.0015 26.7106 65.103 26.4229 65.3062C26.1351 65.5093 25.9108 65.7759 25.75 66.106V71H24.5757V61.25H25.75V64.9634ZM35.9761 70.3208C35.519 70.8582 34.8483 71.127 33.9639 71.127C33.2318 71.127 32.6732 70.9154 32.2881 70.4922C31.9072 70.0648 31.7147 69.4342 31.7104 68.6006V64.1318H32.8848V68.5688C32.8848 69.6099 33.3079 70.1304 34.1543 70.1304C35.0514 70.1304 35.6481 69.7961 35.9443 69.1274V64.1318H37.1187V71H36.0015L35.9761 70.3208ZM40.0195 64.1318L40.0576 64.9951C40.5824 64.335 41.2679 64.0049 42.1143 64.0049C43.5658 64.0049 44.2979 64.8237 44.3105 66.4614V71H43.1362V66.4551C43.132 65.96 43.0177 65.5939 42.7935 65.3569C42.5734 65.12 42.2285 65.0015 41.7588 65.0015C41.3779 65.0015 41.0436 65.103 40.7559 65.3062C40.4681 65.5093 40.2438 65.7759 40.083 66.106V71H38.9087V64.1318H40.0195ZM6.35791 83.5879H2.48584L1.61621 86H0.359375L3.88867 76.7578H4.95508L8.49072 86H7.24023L6.35791 83.5879ZM2.854 82.585H5.99609L4.42188 78.2622L2.854 82.585ZM11.4678 82.8198L10.7314 83.5879V86H9.55713V76.25H10.7314V82.147L11.3599 81.3916L13.499 79.1318H14.9272L12.2549 82.001L15.2383 86H13.8608L11.4678 82.8198ZM20.3799 86C20.3122 85.8646 20.2572 85.6234 20.2148 85.2764C19.6689 85.8434 19.0173 86.127 18.2598 86.127C17.5827 86.127 17.0262 85.9365 16.5903 85.5557C16.1587 85.1706 15.9429 84.6839 15.9429 84.0957C15.9429 83.3805 16.2137 82.8262 16.7554 82.4326C17.3013 82.0348 18.0672 81.8359 19.0532 81.8359H20.1958V81.2964C20.1958 80.8859 20.0731 80.5601 19.8276 80.3188C19.5822 80.0734 19.2204 79.9507 18.7422 79.9507C18.3232 79.9507 17.972 80.0565 17.6885 80.2681C17.4049 80.4797 17.2632 80.7357 17.2632 81.0361H16.0825C16.0825 80.6934 16.2031 80.3633 16.4443 80.0459C16.6898 79.7243 17.0199 79.4704 17.4346 79.2842C17.8535 79.098 18.3127 79.0049 18.812 79.0049C19.6034 79.0049 20.2233 79.2038 20.6719 79.6016C21.1204 79.9951 21.3532 80.5389 21.3701 81.2329V84.394C21.3701 85.0246 21.4505 85.526 21.6113 85.8984V86H20.3799ZM18.4312 85.105C18.7993 85.105 19.1484 85.0098 19.4785 84.8193C19.8086 84.6289 20.0477 84.3813 20.1958 84.0767V82.6675H19.2754C17.8366 82.6675 17.1172 83.0885 17.1172 83.9307C17.1172 84.2988 17.2399 84.5866 17.4854 84.7939C17.7308 85.0013 18.0461 85.105 18.4312 85.105ZM22.9253 82.5088C22.9253 81.4551 23.175 80.6087 23.6743 79.9697C24.1737 79.3265 24.8275 79.0049 25.6357 79.0049C26.4398 79.0049 27.0767 79.2799 27.5464 79.8301V76.25H28.7207V86H27.6416L27.5845 85.2637C27.1147 85.8392 26.4609 86.127 25.623 86.127C24.8275 86.127 24.1779 85.8011 23.6743 85.1494C23.175 84.4977 22.9253 83.6471 22.9253 82.5977V82.5088ZM24.0996 82.6421C24.0996 83.4207 24.2604 84.0301 24.582 84.4702C24.9036 84.9103 25.348 85.1304 25.915 85.1304C26.6598 85.1304 27.2036 84.7961 27.5464 84.1274V80.9727C27.1951 80.3252 26.6556 80.0015 25.9277 80.0015C25.3522 80.0015 24.9036 80.2236 24.582 80.668C24.2604 81.1123 24.0996 81.7703 24.0996 82.6421ZM33.3989 86.127C32.4679 86.127 31.7104 85.8223 31.1265 85.2129C30.5425 84.5993 30.2505 83.7804 30.2505 82.7563V82.5405C30.2505 81.8592 30.3796 81.252 30.6377 80.7188C30.9001 80.1813 31.264 79.7624 31.7295 79.4619C32.1992 79.1572 32.707 79.0049 33.2529 79.0049C34.1458 79.0049 34.8398 79.299 35.335 79.8872C35.8301 80.4754 36.0776 81.3175 36.0776 82.4136V82.9023H31.4248C31.4417 83.5794 31.6385 84.1274 32.0151 84.5464C32.396 84.9611 32.8784 85.1685 33.4624 85.1685C33.8771 85.1685 34.2284 85.0838 34.5161 84.9146C34.8039 84.7453 35.0557 84.521 35.2715 84.2417L35.9888 84.8003C35.4132 85.6847 34.55 86.127 33.3989 86.127ZM33.2529 79.9697C32.779 79.9697 32.3812 80.1432 32.0596 80.4902C31.738 80.833 31.5391 81.3154 31.4629 81.9375H34.9033V81.8486C34.8695 81.252 34.7087 80.7907 34.4209 80.4648C34.1331 80.1348 33.7438 79.9697 33.2529 79.9697ZM38.5469 79.1318L38.5786 79.8936C39.0822 79.3011 39.7614 79.0049 40.6162 79.0049C41.5768 79.0049 42.2306 79.373 42.5776 80.1094C42.8062 79.7793 43.1024 79.5127 43.4663 79.3096C43.8345 79.1064 44.2682 79.0049 44.7676 79.0049C46.2741 79.0049 47.04 79.8026 47.0654 81.3979V86H45.8911V81.4678C45.8911 80.9769 45.779 80.6108 45.5547 80.3696C45.3304 80.1242 44.9538 80.0015 44.4248 80.0015C43.9889 80.0015 43.6271 80.1326 43.3394 80.395C43.0516 80.6532 42.8844 81.0023 42.8379 81.4424V86H41.6572V81.4995C41.6572 80.5008 41.1685 80.0015 40.1909 80.0015C39.4207 80.0015 38.8939 80.3294 38.6104 80.9854V86H37.436V79.1318H38.5469ZM50.1187 86H48.9443V79.1318H50.1187V86ZM48.8491 77.3101C48.8491 77.1196 48.9062 76.9588 49.0205 76.8276C49.139 76.6965 49.3125 76.6309 49.541 76.6309C49.7695 76.6309 49.943 76.6965 50.0615 76.8276C50.18 76.9588 50.2393 77.1196 50.2393 77.3101C50.2393 77.5005 50.18 77.6592 50.0615 77.7861C49.943 77.9131 49.7695 77.9766 49.541 77.9766C49.3125 77.9766 49.139 77.9131 49.0205 77.7861C48.9062 77.6592 48.8491 77.5005 48.8491 77.3101ZM56.0029 84.1782C56.0029 83.8608 55.8823 83.6154 55.6411 83.4419C55.4041 83.2642 54.9873 83.1118 54.3906 82.9849C53.7982 82.8579 53.3263 82.7056 52.9751 82.5278C52.6281 82.3501 52.37 82.1385 52.2007 81.8931C52.0356 81.6476 51.9531 81.3556 51.9531 81.0171C51.9531 80.4543 52.1901 79.9782 52.6641 79.5889C53.1423 79.1995 53.7516 79.0049 54.4922 79.0049C55.2708 79.0049 55.9014 79.2059 56.3838 79.6079C56.8704 80.0099 57.1138 80.5241 57.1138 81.1504H55.9331C55.9331 80.8288 55.7956 80.5516 55.5205 80.3188C55.2497 80.0861 54.9069 79.9697 54.4922 79.9697C54.0648 79.9697 53.7305 80.0628 53.4893 80.249C53.248 80.4352 53.1274 80.6785 53.1274 80.979C53.1274 81.2625 53.2396 81.4762 53.4639 81.6201C53.6882 81.764 54.0923 81.9015 54.6763 82.0327C55.2645 82.1639 55.7406 82.3205 56.1045 82.5024C56.4684 82.6844 56.7371 82.9045 56.9106 83.1626C57.0884 83.4165 57.1772 83.7275 57.1772 84.0957C57.1772 84.7093 56.9318 85.2023 56.4409 85.5747C55.95 85.9429 55.3132 86.127 54.5303 86.127C53.9801 86.127 53.4935 86.0296 53.0703 85.835C52.6471 85.6403 52.3149 85.3695 52.0737 85.0225C51.8368 84.6712 51.7183 84.2925 51.7183 83.8862H52.8926C52.9137 84.2798 53.0703 84.5929 53.3623 84.8257C53.6585 85.0542 54.0479 85.1685 54.5303 85.1685C54.9746 85.1685 55.3301 85.0796 55.5967 84.9019C55.8675 84.7199 56.0029 84.4787 56.0029 84.1782Z" fill="#453F3F"/>
<path d="M0 5C0 2.23857 2.23858 0 5 0H50C52.7614 0 55 2.23858 55 5V50C55 52.7614 52.7614 55 50 55H5C2.23857 55 0 52.7614 0 50V5Z" fill="white"/>
<g filter="url(#filter0_d)">
<circle cx="27.5" cy="26.5" r="21.5" fill="#4AF0FB"/>
</g>
<path d="M30.3979 47.798L13.2788 37.2839L42.3274 16.9971C42.0241 17.2364 47.9888 23.9391 48.7976 26.3654C49.6064 28.7917 46.7344 45.8417 30.3979 47.798Z" fill="url(#paint0_linear)" fill-opacity="0.6"/>
<path d="M13.7524 18.6231C13.7525 16.4738 14.7256 16.5111 17.7459 16.4738C20.7662 16.4366 39.4603 16.4738 39.4603 16.4738C42.7882 16.4738 43.2042 16.8493 43.2042 18.6231V21.6841H13.7524V18.6231Z" fill="#C53618"/>
<path d="M13.7524 31.0201C13.7525 37.5752 14.7256 37.4616 17.7459 37.5752C20.7662 37.6889 39.4603 37.5752 39.4603 37.5752C42.7882 37.5752 43.2042 36.3834 43.2042 31.0201V21.6841H13.7524V31.0201Z" fill="#CECDCD"/>
<path d="M12.9473 18.6235C12.9473 16.4743 13.9204 16.5116 16.9407 16.4743C19.9611 16.4371 38.6551 16.4743 38.6551 16.4743C41.983 16.4743 42.399 16.9804 42.399 18.6235V21.6845H12.9473V18.6235Z" fill="#DB3A19"/>
<path d="M12.9468 31.0204C12.9468 37.5755 13.9199 37.4618 16.9402 37.5755C19.9606 37.6891 38.6547 37.5755 38.6547 37.5755C41.9825 37.5755 42.3985 36.3836 42.3985 31.0204V21.6843H12.9468V31.0204Z" fill="#FDFCFC"/>
<path d="M12.4863 18.6231C12.4863 16.4738 13.4594 16.5111 16.4798 16.4738C19.5001 16.4366 38.1942 16.4738 38.1942 16.4738C41.5221 16.4738 41.9381 16.8493 41.9381 18.6231V21.6841H12.4863V18.6231Z" fill="#C53618"/>
<path d="M12.4863 31.0201C12.4863 37.5752 13.4594 37.4616 16.4798 37.5752C19.5001 37.6889 38.1942 37.5752 38.1942 37.5752C41.5221 37.5752 41.9381 36.3834 41.9381 31.0201V21.6841H12.4863V31.0201Z" fill="#CECDCD"/>
<path d="M11.7959 18.6238C11.7959 16.4746 12.769 16.5118 15.7894 16.4746C18.8097 16.4373 37.5038 16.4746 37.5038 16.4746C40.8317 16.4746 41.2476 16.9807 41.2476 18.6238V21.6848H11.7959V18.6238Z" fill="#DB3A19"/>
<path d="M11.7959 31.0204C11.7959 37.5755 12.769 37.4618 15.7894 37.5755C18.8097 37.6891 37.5038 37.5755 37.5038 37.5755C40.8317 37.5755 41.2476 36.3836 41.2476 31.0204V21.6843H11.7959V31.0204Z" fill="#FDFCFC"/>
<rect x="20.5576" y="23.1975" width="2.69592" height="2.69592" fill="#C4C4C4"/>
<rect x="24.6021" y="23.1975" width="2.69592" height="2.69592" fill="#C4C4C4"/>
<rect x="28.646" y="23.1975" width="2.69592" height="2.69592" fill="#C4C4C4"/>
<rect x="16.3789" y="27.3762" width="2.69592" height="2.69592" fill="#C4C4C4"/>
<rect x="20.4233" y="27.3762" width="2.69592" height="2.69592" fill="#C4C4C4"/>
<rect x="24.4673" y="27.3762" width="2.69592" height="2.69592" fill="#C4C4C4"/>
<rect x="24.4673" y="31.6895" width="2.69592" height="2.69592" fill="#C4C4C4"/>
<rect x="16.3789" y="31.6895" width="2.69592" height="2.69592" fill="#C4C4C4"/>
<rect x="20.4233" y="31.6895" width="2.69592" height="2.69592" fill="#C4C4C4"/>
<rect x="32.6895" y="31.6895" width="2.69592" height="2.69592" fill="#C4C4C4"/>
<rect x="28.646" y="31.6895" width="2.69592" height="2.69592" fill="#C4C4C4"/>
<rect x="28.5107" y="27.3762" width="2.69592" height="2.69592" fill="#C4C4C4"/>
<rect x="32.5552" y="27.3762" width="2.69592" height="2.69592" fill="#C4C4C4"/>
<rect x="32.6895" y="23.1975" width="2.69592" height="2.69592" fill="#DB3A19"/>
<rect x="22.1758" y="12.2788" width="1.88715" height="5.93103" rx="0.943574" fill="#D8D6D6"/>
<rect x="31.0723" y="12.2788" width="1.88715" height="5.93103" rx="0.943574" fill="#D8D6D6"/>
<rect x="21.771" y="12.2791" width="1.88715" height="5.93103" rx="0.943574" fill="white"/>
<rect x="30.668" y="12.2788" width="1.88715" height="5.93103" rx="0.943574" fill="white"/>
<defs>
<filter id="filter0_d" x="4" y="4" width="47" height="47" filterUnits="userSpaceOnUse" color-interpolation-filters="sRGB">
<feFlood flood-opacity="0" result="BackgroundImageFix"/>
<feColorMatrix in="SourceAlpha" type="matrix" values="0 0 0 0 0 0 0 0 0 0 0 0 0 0 0 0 0 0 127 0"/>
<feOffset dy="1"/>
<feGaussianBlur stdDeviation="1"/>
<feColorMatrix type="matrix" values="0 0 0 0 0 0 0 0 0 0 0 0 0 0 0 0 0 0 0.25 0"/>
<feBlend mode="normal" in2="BackgroundImageFix" result="effect1_dropShadow"/>
<feBlend mode="normal" in="SourceGraphic" in2="effect1_dropShadow" result="shape"/>
</filter>
<linearGradient id="paint0_linear" x1="18.2663" y1="20.9736" x2="41.249" y2="66.3325" gradientUnits="userSpaceOnUse">
<stop stop-color="#54B3B9"/>
<stop offset="1" stop-color="#163F5F" stop-opacity="0"/>
</linearGradient>
</defs>
</svg>
