<svg width="55" height="75" viewBox="0 0 55 75" fill="none" xmlns="http://www.w3.org/2000/svg">
<path d="M10.8091 62.7578L13.8306 70.2988L16.8521 62.7578H18.4326V72H17.2139V68.4009L17.3281 64.5161L14.2939 72H13.3608L10.333 64.5352L10.4536 68.4009V72H9.23486V62.7578H10.8091ZM24.6406 72C24.5729 71.8646 24.5179 71.6234 24.4756 71.2764C23.9297 71.8434 23.278 72.127 22.5205 72.127C21.8434 72.127 21.2869 71.9365 20.8511 71.5557C20.4194 71.1706 20.2036 70.6839 20.2036 70.0957C20.2036 69.3805 20.4744 68.8262 21.0161 68.4326C21.562 68.0348 22.328 67.8359 23.314 67.8359H24.4565V67.2964C24.4565 66.8859 24.3338 66.5601 24.0884 66.3188C23.8429 66.0734 23.4811 65.9507 23.0029 65.9507C22.584 65.9507 22.2327 66.0565 21.9492 66.2681C21.6657 66.4797 21.5239 66.7357 21.5239 67.0361H20.3433C20.3433 66.6934 20.4639 66.3633 20.7051 66.0459C20.9505 65.7243 21.2806 65.4704 21.6953 65.2842C22.1143 65.098 22.5734 65.0049 23.0728 65.0049C23.8641 65.0049 24.484 65.2038 24.9326 65.6016C25.3812 65.9951 25.6139 66.5389 25.6309 67.2329V70.394C25.6309 71.0246 25.7113 71.526 25.8721 71.8984V72H24.6406ZM22.6919 71.105C23.0601 71.105 23.4092 71.0098 23.7393 70.8193C24.0693 70.6289 24.3084 70.3813 24.4565 70.0767V68.6675H23.5361C22.0973 68.6675 21.3779 69.0885 21.3779 69.9307C21.3779 70.2988 21.5007 70.5866 21.7461 70.7939C21.9915 71.0013 22.3068 71.105 22.6919 71.105ZM31.4707 70.1782C31.4707 69.8608 31.3501 69.6154 31.1089 69.4419C30.8719 69.2642 30.4551 69.1118 29.8584 68.9849C29.266 68.8579 28.7941 68.7056 28.4429 68.5278C28.0959 68.3501 27.8377 68.1385 27.6685 67.8931C27.5034 67.6476 27.4209 67.3556 27.4209 67.0171C27.4209 66.4543 27.6579 65.9782 28.1318 65.5889C28.61 65.1995 29.2194 65.0049 29.96 65.0049C30.7386 65.0049 31.3691 65.2059 31.8516 65.6079C32.3382 66.0099 32.5815 66.5241 32.5815 67.1504H31.4009C31.4009 66.8288 31.2633 66.5516 30.9883 66.3188C30.7174 66.0861 30.3747 65.9697 29.96 65.9697C29.5326 65.9697 29.1982 66.0628 28.957 66.249C28.7158 66.4352 28.5952 66.6785 28.5952 66.979C28.5952 67.2625 28.7074 67.4762 28.9316 67.6201C29.1559 67.764 29.5601 67.9015 30.144 68.0327C30.7323 68.1639 31.2083 68.3205 31.5723 68.5024C31.9362 68.6844 32.2049 68.9045 32.3784 69.1626C32.5562 69.4165 32.645 69.7275 32.645 70.0957C32.645 70.7093 32.3996 71.2023 31.9087 71.5747C31.4178 71.9429 30.7809 72.127 29.998 72.127C29.4479 72.127 28.9613 72.0296 28.5381 71.835C28.1149 71.6403 27.7827 71.3695 27.5415 71.0225C27.3045 70.6712 27.186 70.2925 27.186 69.8862H28.3604C28.3815 70.2798 28.5381 70.5929 28.8301 70.8257C29.1263 71.0542 29.5156 71.1685 29.998 71.1685C30.4424 71.1685 30.7979 71.0796 31.0645 70.9019C31.3353 70.7199 31.4707 70.4787 31.4707 70.1782ZM35.7681 63.4688V65.1318H37.0503V66.0396H35.7681V70.2988C35.7681 70.5739 35.8252 70.7812 35.9395 70.9209C36.0537 71.0563 36.2484 71.124 36.5234 71.124C36.6589 71.124 36.8451 71.0986 37.082 71.0479V72C36.7731 72.0846 36.4727 72.127 36.1807 72.127C35.6559 72.127 35.2603 71.9683 34.9937 71.6509C34.7271 71.3335 34.5938 70.8828 34.5938 70.2988V66.0396H33.3433V65.1318H34.5938V63.4688H35.7681ZM41.2778 72.127C40.3468 72.127 39.5894 71.8223 39.0054 71.2129C38.4214 70.5993 38.1294 69.7804 38.1294 68.7563V68.5405C38.1294 67.8592 38.2585 67.252 38.5166 66.7188C38.779 66.1813 39.1429 65.7624 39.6084 65.4619C40.0781 65.1572 40.5859 65.0049 41.1318 65.0049C42.0247 65.0049 42.7188 65.299 43.2139 65.8872C43.709 66.4754 43.9565 67.3175 43.9565 68.4136V68.9023H39.3037C39.3206 69.5794 39.5174 70.1274 39.894 70.5464C40.2749 70.9611 40.7573 71.1685 41.3413 71.1685C41.756 71.1685 42.1073 71.0838 42.395 70.9146C42.6828 70.7453 42.9346 70.521 43.1504 70.2417L43.8677 70.8003C43.2922 71.6847 42.4289 72.127 41.2778 72.127ZM41.1318 65.9697C40.6579 65.9697 40.2601 66.1432 39.9385 66.4902C39.6169 66.833 39.418 67.3154 39.3418 67.9375H42.7822V67.8486C42.7484 67.252 42.5876 66.7907 42.2998 66.4648C42.012 66.1348 41.6227 65.9697 41.1318 65.9697ZM48.6411 66.1855C48.4634 66.1559 48.2708 66.1411 48.0635 66.1411C47.2933 66.1411 46.7707 66.4691 46.4956 67.125V72H45.3213V65.1318H46.4639L46.4829 65.9253C46.868 65.3117 47.4139 65.0049 48.1206 65.0049C48.3491 65.0049 48.5226 65.0345 48.6411 65.0938V66.1855Z" fill="#453F3F"/>
<path d="M0 5C0 2.23857 2.23858 0 5 0H50C52.7614 0 55 2.23858 55 5V50C55 52.7614 52.7614 55 50 55H5C2.23857 55 0 52.7614 0 50V5Z" fill="white"/>
<path d="M14.425 13.6653C11.4919 16.5985 11.0447 20.9068 13.4261 23.2883C15.8076 25.6698 25.8011 27.8739 27.2174 26.4577C28.6336 25.0414 26.4295 15.0479 24.048 12.6664C21.6665 10.285 17.3582 10.7322 14.425 13.6653Z" fill="#163F5F"/>
<path d="M14.42 40.6868C17.3531 43.6199 21.6615 44.0672 24.0429 41.6857C26.4244 39.3042 28.6286 29.3107 27.2123 27.8944C25.7961 26.4782 15.8025 28.6823 13.4211 31.0638C11.0396 33.4453 11.4868 37.7536 14.42 40.6868Z" fill="#163F5F"/>
<path d="M41.8896 40.8247C38.9564 43.7579 34.6481 44.2051 32.2666 41.8236C29.8852 39.4422 27.681 29.4486 29.0973 28.0324C30.5135 26.6161 40.5071 28.8203 42.8885 31.2017C45.27 33.5832 44.8227 37.8916 41.8896 40.8247Z" fill="#163F5F"/>
<path d="M41.4773 13.3968C44.4105 16.3299 44.8577 20.6383 42.4762 23.0197C40.0948 25.4012 30.1012 27.6054 28.685 26.1891C27.2687 24.7729 29.4729 14.7793 31.8543 12.3979C34.2358 10.0164 38.5441 10.4636 41.4773 13.3968Z" fill="#163F5F"/>
<path d="M13.334 41.5044C16.2672 44.4376 20.5755 44.8848 22.957 42.5033C25.3385 40.1219 27.5426 30.1283 26.1264 28.7121C24.7101 27.2958 14.7166 29.5 12.3351 31.8814C9.95365 34.2629 10.4009 38.5712 13.334 41.5044Z" fill="#82E9F0"/>
<path d="M13.3391 12.3108C10.4059 15.244 9.95872 19.5523 12.3402 21.9338C14.7216 24.3153 24.7152 26.5194 26.1314 25.1032C27.5477 23.6869 25.3435 13.6934 22.9621 11.3119C20.5806 8.93046 16.2723 9.37769 13.3391 12.3108Z" fill="#82E9F0"/>
<path d="M42.975 41.9109C40.0419 44.844 35.7335 45.2913 33.3521 42.9098C30.9706 40.5284 28.7665 30.5348 30.1827 29.1186C31.599 27.7023 41.5925 29.9065 43.974 32.2879C46.3554 34.6694 45.9082 38.9777 42.975 41.9109Z" fill="#82E9F0"/>
<path d="M42.5632 12.3108C45.4964 15.244 45.9436 19.5523 43.5622 21.9338C41.1807 24.3153 31.1872 26.5194 29.7709 25.1032C28.3547 23.6869 30.5588 13.6934 32.9403 11.3119C35.3217 8.93046 39.6301 9.37769 42.5632 12.3108Z" fill="#82E9F0"/>
</svg>
